<svg width="25" height="25" viewBox="0 0 25 25" fill="none" xmlns="http://www.w3.org/2000/svg">
<path d="M12.4062 15.0167C13.1024 15.0167 13.7701 14.7401 14.2624 14.2478C14.7547 13.7555 15.0312 13.0879 15.0312 12.3917C15.0312 12.3148 15.0277 12.2386 15.0212 12.1634L12.178 15.0066C12.2532 15.0132 12.3291 15.0167 12.4062 15.0167ZM21.095 4.27198L20.0937 3.27167C20.0586 3.23653 20.0109 3.2168 19.9612 3.2168C19.9115 3.2168 19.8638 3.23653 19.8287 3.27167L17.2665 5.83456C15.853 5.11222 14.2642 4.75105 12.5 4.75105C7.99531 4.75105 4.63437 7.09714 2.41719 11.7893C2.32807 11.978 2.28185 12.1841 2.28185 12.3928C2.28185 12.6015 2.32807 12.8076 2.41719 12.9964C3.30312 14.8625 4.36992 16.3582 5.61758 17.4835L3.13812 19.962C3.10299 19.9971 3.08325 20.0448 3.08325 20.0945C3.08325 20.1442 3.10299 20.1919 3.13812 20.2271L4.13867 21.2276C4.17383 21.2627 4.2215 21.2825 4.27121 21.2825C4.32092 21.2825 4.36859 21.2627 4.40375 21.2276L21.095 4.5373C21.1124 4.51988 21.1263 4.4992 21.1357 4.47644C21.1451 4.45368 21.15 4.42928 21.15 4.40464C21.15 4.38 21.1451 4.3556 21.1357 4.33284C21.1263 4.31008 21.1124 4.2894 21.095 4.27198ZM8.28125 12.3917C8.28118 11.6792 8.46566 10.9788 8.81672 10.3588C9.16777 9.73883 9.67343 9.22034 10.2844 8.85385C10.8954 8.48736 11.5909 8.28538 12.3032 8.26758C13.0155 8.24979 13.7202 8.41678 14.3487 8.7523L13.2092 9.89183C12.7497 9.74468 12.2584 9.72695 11.7895 9.84061C11.3205 9.95426 10.8919 10.1949 10.5507 10.5361C10.2095 10.8773 9.96883 11.3059 9.85518 11.7749C9.74153 12.2439 9.75925 12.7351 9.9064 13.1946L8.76687 14.3342C8.44709 13.7367 8.28025 13.0693 8.28125 12.3917Z" fill="#A4A3A7"/>
<path d="M22.5828 11.7875C21.7578 10.05 20.7759 8.6332 19.637 7.53711L16.2587 10.9156C16.5434 11.66 16.6066 12.471 16.4404 13.2505C16.2743 14.03 15.8859 14.7447 15.3223 15.3083C14.7588 15.8719 14.0441 16.2602 13.2645 16.4263C12.485 16.5925 11.6741 16.5294 10.9297 16.2446L8.06422 19.1101C9.39359 19.7252 10.8722 20.0328 12.5 20.0328C17.0047 20.0328 20.3656 17.6867 22.5828 12.9945C22.6719 12.8058 22.7182 12.5997 22.7182 12.391C22.7182 12.1823 22.6719 11.9762 22.5828 11.7875Z" fill="#A4A3A7"/>
</svg>
