<svg width="606" height="192" viewBox="0 0 606 192" fill="none" xmlns="http://www.w3.org/2000/svg">
<g opacity="0.1" clip-path="url(#clip0_56_3613)">
<path d="M459.05 88.12L415.58 36.74C414.297 35.223 412.61 34.1011 410.714 33.5047C408.819 32.9083 406.794 32.8619 404.873 33.3708C402.953 33.8798 401.216 34.9232 399.865 36.3799C398.513 37.8365 397.603 39.6467 397.24 41.6L392.46 67.32C392.013 69.7324 390.735 71.9119 388.848 73.4795C386.96 75.0471 384.583 75.9036 382.13 75.9H329.51C327.969 75.8996 326.446 75.5598 325.051 74.9049C323.656 74.2499 322.422 73.2959 321.437 72.1104C320.452 70.925 319.74 69.5372 319.352 68.0456C318.963 66.5541 318.908 64.9953 319.19 63.48L336.67 -30.52C338.83 -42.13 323.15 -47.91 317.25 -37.69L238.98 98.05C237.905 99.9188 237.432 102.073 237.625 104.221C237.818 106.368 238.669 108.403 240.06 110.05L283.54 161.44C284.822 162.958 286.508 164.081 288.403 164.678C290.298 165.274 292.323 165.321 294.243 164.812C296.164 164.303 297.9 163.259 299.25 161.802C300.6 160.344 301.509 158.533 301.87 156.58L305.61 136.5C306.058 134.088 307.337 131.91 309.224 130.343C311.111 128.776 313.487 127.918 315.94 127.92L368.55 127.97C370.091 127.969 371.613 128.307 373.008 128.961C374.403 129.615 375.637 130.568 376.623 131.753C377.608 132.938 378.32 134.325 378.708 135.816C379.097 137.307 379.152 138.865 378.87 140.38L362.44 228.74C360.29 240.34 375.97 246.13 381.86 235.9L460.13 100.15C461.209 98.2771 461.684 96.1171 461.491 93.9644C461.297 91.8116 460.445 89.7708 459.05 88.12Z" fill="#2574F5"/>
<path d="M696.63 88.12L653.16 36.74C651.877 35.223 650.19 34.1011 648.295 33.5047C646.399 32.9083 644.374 32.8619 642.453 33.3708C640.533 33.8798 638.796 34.9232 637.445 36.3799C636.094 37.8365 635.183 39.6467 634.82 41.6L630.04 67.32C629.593 69.7341 628.313 71.9149 626.424 73.4827C624.535 75.0505 622.155 75.9059 619.7 75.9H567.08C565.539 75.8999 564.017 75.5602 562.622 74.9052C561.227 74.2502 559.994 73.2959 559.009 72.1102C558.025 70.9245 557.314 69.5365 556.927 68.0449C556.54 66.5533 556.486 64.9947 556.77 63.48L574.24 -30.52C576.4 -42.13 560.72 -47.91 554.82 -37.69L476.56 98.05C475.485 99.9188 475.012 102.073 475.205 104.221C475.399 106.368 476.249 108.403 477.64 110.05L521.12 161.44C522.403 162.957 524.09 164.079 525.985 164.675C527.881 165.272 529.906 165.318 531.827 164.809C533.747 164.3 535.484 163.257 536.835 161.8C538.186 160.343 539.097 158.533 539.46 156.58L543.19 136.5C543.64 134.089 544.919 131.912 546.806 130.345C548.692 128.778 551.068 127.92 553.52 127.92L606.14 127.97C607.68 127.97 609.201 128.31 610.595 128.964C611.989 129.619 613.222 130.572 614.206 131.757C615.19 132.941 615.901 134.328 616.289 135.818C616.677 137.309 616.732 138.866 616.45 140.38L600.03 228.74C597.87 240.34 613.55 246.13 619.44 235.9L697.7 100.15C698.783 98.2789 699.261 96.119 699.07 93.9656C698.878 91.8122 698.026 89.7705 696.63 88.12Z" fill="#2574F5"/>
<path d="M221.47 287.77L178 236.39C176.715 234.885 175.031 233.774 173.142 233.184C171.254 232.595 169.237 232.551 167.324 233.058C165.411 233.565 163.681 234.602 162.332 236.049C160.983 237.497 160.071 239.296 159.7 241.24L154.92 266.96C154.471 269.373 153.191 271.553 151.302 273.12C149.413 274.688 147.034 275.544 144.58 275.54H91.9698C90.4285 275.54 88.9062 275.2 87.511 274.545C86.1158 273.89 84.8819 272.936 83.8969 271.75C82.9118 270.565 82.1999 269.177 81.8115 267.686C81.4232 266.194 81.368 264.635 81.6498 263.12L99.1298 169.12C101.29 157.51 85.6098 151.73 79.7098 161.95L1.39981 297.7C0.324923 299.569 -0.148079 301.723 0.0451663 303.871C0.238412 306.018 1.08852 308.053 2.47981 309.7L45.9498 361.09C47.2322 362.607 48.9185 363.729 50.8131 364.326C52.7076 364.923 54.7326 364.97 56.6529 364.462C58.5732 363.955 60.3101 362.912 61.6619 361.457C63.0137 360.002 63.9249 358.193 64.2898 356.24L68.0198 336.17C68.4702 333.759 69.7493 331.582 71.6358 330.015C73.5224 328.448 75.8974 327.59 78.3498 327.59H130.97C132.511 327.589 134.033 327.927 135.428 328.581C136.823 329.235 138.057 330.188 139.043 331.373C140.028 332.558 140.74 333.945 141.128 335.436C141.517 336.927 141.572 338.485 141.29 340L124.86 428.34C122.7 439.94 138.38 445.73 144.28 435.5L222.55 299.75C223.617 297.883 224.086 295.733 223.893 293.59C223.7 291.448 222.854 289.416 221.47 287.77Z" fill="#2574F5"/>
<path d="M459.05 287.77L415.58 236.39C414.298 234.873 412.611 233.751 410.717 233.154C408.822 232.557 406.797 232.51 404.877 233.018C402.956 233.526 401.22 234.568 399.868 236.023C398.516 237.478 397.605 239.287 397.24 241.24L392.46 266.96C392.013 269.372 390.735 271.552 388.848 273.12C386.96 274.687 384.583 275.544 382.13 275.54H329.51C327.969 275.54 326.446 275.2 325.051 274.545C323.656 273.89 322.422 272.936 321.437 271.75C320.452 270.565 319.74 269.177 319.352 267.686C318.963 266.194 318.908 264.635 319.19 263.12L336.67 169.12C338.83 157.51 323.15 151.73 317.25 161.95L238.98 297.7C237.905 299.569 237.432 301.723 237.625 303.871C237.818 306.018 238.669 308.053 240.06 309.7L283.54 361.09C284.823 362.604 286.509 363.723 288.402 364.318C290.295 364.913 292.318 364.96 294.236 364.452C296.155 363.945 297.89 362.904 299.241 361.45C300.592 359.997 301.504 358.19 301.87 356.24L305.61 336.17C306.058 333.758 307.337 331.58 309.224 330.013C311.111 328.446 313.487 327.588 315.94 327.59H368.55C370.091 327.589 371.613 327.927 373.008 328.581C374.403 329.235 375.637 330.188 376.623 331.373C377.608 332.558 378.32 333.945 378.708 335.436C379.097 336.927 379.152 338.485 378.87 340L362.44 428.34C360.29 439.94 375.97 445.73 381.86 435.5L460.13 299.75C461.197 297.883 461.666 295.733 461.473 293.59C461.28 291.448 460.434 289.416 459.05 287.77Z" fill="#2574F5"/>
<path d="M696.63 287.77L653.16 236.39C651.878 234.873 650.191 233.751 648.297 233.154C646.402 232.557 644.377 232.51 642.457 233.018C640.537 233.526 638.8 234.568 637.448 236.023C636.096 237.478 635.185 239.287 634.82 241.24L630.04 266.96C629.595 269.376 628.316 271.559 626.427 273.129C624.537 274.699 622.157 275.556 619.7 275.55H567.08C565.54 275.548 564.018 275.207 562.624 274.552C561.23 273.896 559.998 272.942 559.014 271.757C558.03 270.571 557.319 269.184 556.931 267.693C556.543 266.202 556.488 264.644 556.77 263.13L574.24 169.13C576.4 157.52 560.72 151.74 554.82 161.96L476.56 297.7C475.485 299.569 475.012 301.723 475.205 303.871C475.399 306.018 476.249 308.053 477.64 309.7L521.12 361.09C522.402 362.607 524.089 363.729 525.983 364.326C527.878 364.923 529.903 364.97 531.823 364.462C533.743 363.955 535.48 362.912 536.832 361.457C538.184 360.002 539.095 358.193 539.46 356.24L543.19 336.17C543.64 333.759 544.919 331.582 546.806 330.015C548.692 328.448 551.068 327.59 553.52 327.59H606.14C607.68 327.59 609.201 327.93 610.595 328.584C611.989 329.239 613.222 330.192 614.206 331.377C615.19 332.561 615.901 333.948 616.289 335.438C616.677 336.929 616.732 338.486 616.45 340L600.03 428.34C597.87 439.94 613.55 445.73 619.44 435.5L697.7 299.8C698.783 297.929 699.261 295.769 699.07 293.616C698.878 291.462 698.026 289.421 696.63 287.77Z" fill="#2574F5"/>
</g>
<defs>
<clipPath id="clip0_56_3613">
<rect width="936.7" height="683.5" fill="white" transform="translate(0 -43)"/>
</clipPath>
</defs>
</svg>
