<svg width="612" height="520" viewBox="0 0 612 520" fill="none" xmlns="http://www.w3.org/2000/svg">
<g opacity="0.1" clip-path="url(#clip0_25_1258)">
<path d="M459.05 88.2351L415.58 36.8551C414.297 35.3381 412.61 34.2162 410.715 33.6198C408.819 33.0234 406.794 32.977 404.873 33.4859C402.953 33.9949 401.216 35.0383 399.865 36.495C398.514 37.9516 397.603 39.7618 397.24 41.7151L392.46 67.4351C392.013 69.8475 390.735 72.027 388.848 73.5946C386.96 75.1622 384.583 76.0187 382.13 76.0151H329.51C327.969 76.0147 326.446 75.6749 325.051 75.02C323.656 74.3651 322.422 73.411 321.437 72.2255C320.452 71.0401 319.74 69.6523 319.352 68.1607C318.963 66.6692 318.908 65.1104 319.19 63.5951L336.67 -30.4049C338.83 -42.0149 323.15 -47.7949 317.25 -37.5749L238.98 98.1651C237.905 100.034 237.432 102.188 237.625 104.336C237.819 106.483 238.669 108.518 240.06 110.165L283.54 161.555C284.822 163.073 286.508 164.196 288.403 164.793C290.298 165.39 292.323 165.436 294.243 164.927C296.164 164.418 297.9 163.374 299.25 161.917C300.6 160.459 301.509 158.649 301.87 156.695L305.61 136.615C306.059 134.204 307.337 132.025 309.224 130.458C311.111 128.891 313.487 128.033 315.94 128.035L368.55 128.085C370.091 128.084 371.613 128.422 373.008 129.076C374.403 129.73 375.638 130.683 376.623 131.868C377.608 133.053 378.32 134.44 378.708 135.931C379.097 137.422 379.152 138.98 378.87 140.495L362.44 228.855C360.29 240.455 375.97 246.245 381.86 236.015L460.13 100.265C461.209 98.3922 461.684 96.2322 461.491 94.0795C461.297 91.9267 460.445 89.8859 459.05 88.2351Z" fill="#2574F5"/>
<path d="M696.63 88.2351L653.16 36.8551C651.877 35.3381 650.19 34.2162 648.295 33.6198C646.399 33.0234 644.374 32.977 642.453 33.4859C640.533 33.9949 638.796 35.0383 637.445 36.495C636.094 37.9516 635.183 39.7618 634.82 41.7151L630.04 67.4351C629.593 69.8492 628.313 72.0301 626.424 73.5978C624.535 75.1656 622.155 76.021 619.7 76.0151H567.08C565.539 76.015 564.017 75.6753 562.622 75.0203C561.227 74.3653 559.994 73.411 559.01 72.2253C558.025 71.0396 557.314 69.6516 556.927 68.16C556.54 66.6684 556.486 65.1098 556.77 63.5951L574.24 -30.4049C576.4 -42.0149 560.72 -47.7949 554.82 -37.5749L476.56 98.1651C475.485 100.034 475.012 102.188 475.205 104.336C475.399 106.483 476.249 108.518 477.64 110.165L521.12 161.555C522.403 163.072 524.09 164.194 525.985 164.79C527.881 165.387 529.906 165.433 531.827 164.924C533.747 164.415 535.484 163.372 536.835 161.915C538.186 160.459 539.097 158.648 539.46 156.695L543.19 136.615C543.64 134.204 544.92 132.027 546.806 130.46C548.693 128.893 551.068 128.035 553.52 128.035L606.14 128.085C607.68 128.086 609.201 128.425 610.595 129.079C611.989 129.734 613.222 130.687 614.206 131.872C615.19 133.056 615.901 134.443 616.289 135.933C616.677 137.424 616.732 138.981 616.45 140.495L600.03 228.855C597.87 240.455 613.55 246.245 619.44 236.015L697.7 100.265C698.783 98.394 699.262 96.2341 699.07 94.0807C698.878 91.9273 698.026 89.8857 696.63 88.2351Z" fill="#2574F5"/>
<path d="M221.47 287.885L178 236.505C176.715 235 175.031 233.889 173.143 233.299C171.254 232.71 169.237 232.666 167.324 233.173C165.411 233.68 163.681 234.717 162.332 236.164C160.983 237.612 160.071 239.411 159.7 241.355L154.92 267.075C154.471 269.488 153.191 271.668 151.302 273.235C149.413 274.803 147.035 275.659 144.58 275.655H91.97C90.4287 275.655 88.9064 275.315 87.5112 274.66C86.116 274.005 84.8821 273.051 83.897 271.865C82.912 270.68 82.2001 269.292 81.8117 267.801C81.4234 266.309 81.3682 264.75 81.65 263.235L99.13 169.235C101.29 157.625 85.61 151.845 79.71 162.065L1.39999 297.815C0.325106 299.684 -0.147896 301.838 0.0453495 303.986C0.238595 306.133 1.0887 308.168 2.48 309.815L45.95 361.205C47.2324 362.722 48.9187 363.844 50.8132 364.441C52.7078 365.038 54.7328 365.085 56.6531 364.577C58.5734 364.07 60.3103 363.027 61.6621 361.572C63.0139 360.117 63.9251 358.308 64.29 356.355L68.02 336.285C68.4703 333.874 69.7495 331.697 71.636 330.13C73.5225 328.563 75.8976 327.705 78.35 327.705H130.97C132.511 327.704 134.033 328.042 135.428 328.696C136.823 329.35 138.058 330.303 139.043 331.488C140.028 332.673 140.74 334.06 141.128 335.551C141.517 337.042 141.572 338.6 141.29 340.115L124.86 428.455C122.7 440.055 138.38 445.845 144.28 435.615L222.55 299.865C223.618 297.998 224.086 295.848 223.893 293.705C223.7 291.563 222.854 289.531 221.47 287.885Z" fill="#2574F5"/>
<path d="M459.05 287.885L415.58 236.505C414.298 234.988 412.611 233.866 410.717 233.269C408.822 232.672 406.797 232.625 404.877 233.133C402.957 233.641 401.22 234.683 399.868 236.138C398.516 237.593 397.605 239.402 397.24 241.355L392.46 267.075C392.013 269.487 390.735 271.667 388.848 273.235C386.96 274.802 384.583 275.659 382.13 275.655H329.51C327.969 275.655 326.446 275.315 325.051 274.66C323.656 274.005 322.422 273.051 321.437 271.865C320.452 270.68 319.74 269.292 319.352 267.801C318.963 266.309 318.908 264.75 319.19 263.235L336.67 169.235C338.83 157.625 323.15 151.845 317.25 162.065L238.98 297.815C237.905 299.684 237.432 301.838 237.625 303.986C237.819 306.133 238.669 308.168 240.06 309.815L283.54 361.205C284.823 362.719 286.509 363.838 288.402 364.433C290.295 365.028 292.318 365.075 294.236 364.567C296.155 364.06 297.89 363.019 299.241 361.565C300.592 360.112 301.504 358.305 301.87 356.355L305.61 336.285C306.059 333.873 307.337 331.695 309.224 330.128C311.111 328.561 313.487 327.703 315.94 327.705H368.55C370.091 327.704 371.613 328.042 373.008 328.696C374.403 329.35 375.638 330.303 376.623 331.488C377.608 332.673 378.32 334.06 378.708 335.551C379.097 337.042 379.152 338.6 378.87 340.115L362.44 428.455C360.29 440.055 375.97 445.845 381.86 435.615L460.13 299.865C461.198 297.998 461.666 295.848 461.473 293.705C461.28 291.563 460.434 289.531 459.05 287.885Z" fill="#2574F5"/>
<path d="M696.63 287.885L653.16 236.505C651.878 234.988 650.191 233.866 648.297 233.269C646.402 232.672 644.377 232.625 642.457 233.133C640.537 233.641 638.8 234.683 637.448 236.138C636.096 237.593 635.185 239.402 634.82 241.355L630.04 267.075C629.595 269.491 628.316 271.674 626.427 273.244C624.537 274.814 622.157 275.67 619.7 275.665H567.08C565.54 275.663 564.018 275.322 562.624 274.667C561.23 274.011 559.998 273.057 559.014 271.872C558.03 270.686 557.319 269.299 556.931 267.808C556.543 266.317 556.488 264.759 556.77 263.245L574.24 169.245C576.4 157.635 560.72 151.855 554.82 162.075L476.56 297.815C475.485 299.684 475.012 301.838 475.205 303.986C475.399 306.133 476.249 308.168 477.64 309.815L521.12 361.205C522.402 362.722 524.089 363.844 525.983 364.441C527.878 365.038 529.903 365.085 531.823 364.577C533.743 364.07 535.48 363.027 536.832 361.572C538.184 360.117 539.095 358.308 539.46 356.355L543.19 336.285C543.64 333.874 544.92 331.697 546.806 330.13C548.693 328.563 551.068 327.705 553.52 327.705H606.14C607.68 327.705 609.201 328.045 610.595 328.699C611.989 329.354 613.222 330.307 614.206 331.492C615.19 332.676 615.901 334.063 616.289 335.553C616.677 337.044 616.732 338.601 616.45 340.115L600.03 428.455C597.87 440.055 613.55 445.845 619.44 435.615L697.7 299.915C698.783 298.044 699.262 295.884 699.07 293.731C698.878 291.577 698.026 289.536 696.63 287.885Z" fill="#2574F5"/>
<path d="M459.05 487.535L415.58 436.155C414.297 434.638 412.61 433.516 410.715 432.92C408.819 432.323 406.794 432.277 404.873 432.786C402.953 433.295 401.216 434.338 399.865 435.795C398.514 437.252 397.603 439.062 397.24 441.015L392.46 466.735C392.02 469.154 390.745 471.342 388.857 472.917C386.969 474.492 384.589 475.355 382.13 475.355H329.51C327.969 475.353 326.448 475.012 325.054 474.356C323.659 473.701 322.426 472.747 321.441 471.562C320.457 470.377 319.745 468.99 319.356 467.499C318.966 466.008 318.91 464.45 319.19 462.935L336.67 368.935C338.83 357.325 323.15 351.535 317.25 361.765L238.98 497.455C237.908 499.325 237.437 501.479 237.63 503.625C237.823 505.772 238.671 507.807 240.06 509.455L283.54 560.835C284.822 562.353 286.508 563.476 288.403 564.073C290.298 564.67 292.323 564.716 294.243 564.207C296.164 563.698 297.9 562.654 299.25 561.197C300.6 559.739 301.509 557.928 301.87 555.975L305.61 535.905C306.065 533.499 307.346 531.328 309.232 529.766C311.119 528.205 313.491 527.352 315.94 527.355H368.55C370.091 527.357 371.612 527.698 373.006 528.354C374.401 529.009 375.634 529.963 376.619 531.148C377.603 532.333 378.315 533.72 378.704 535.211C379.093 536.702 379.15 538.26 378.87 539.775L362.44 628.105C360.29 639.715 375.97 645.505 381.86 635.275L460.13 499.525C461.2 497.656 461.67 495.504 461.477 493.36C461.284 491.216 460.436 489.182 459.05 487.535Z" fill="#2574F5"/>
<path d="M696.63 487.535L653.16 436.155C651.877 434.638 650.19 433.516 648.295 432.92C646.399 432.323 644.374 432.277 642.453 432.786C640.533 433.295 638.796 434.338 637.445 435.795C636.094 437.252 635.183 439.062 634.82 441.015L630.04 466.735C629.6 469.156 628.323 471.345 626.433 472.92C624.543 474.495 622.16 475.357 619.7 475.355H567.08C565.54 475.353 564.018 475.012 562.624 474.357C561.23 473.701 559.998 472.747 559.014 471.562C558.03 470.376 557.319 468.989 556.931 467.498C556.543 466.007 556.488 464.449 556.77 462.935L574.24 368.935C576.4 357.325 560.72 351.535 554.82 361.765L476.56 497.455C475.488 499.325 475.017 501.479 475.21 503.625C475.403 505.772 476.251 507.807 477.64 509.455L521.12 560.835C522.403 562.352 524.09 563.474 525.985 564.07C527.881 564.667 529.906 564.713 531.827 564.204C533.747 563.695 535.484 562.652 536.835 561.195C538.186 559.738 539.097 557.928 539.46 555.975L543.19 535.905C543.647 533.5 544.928 531.329 546.814 529.769C548.7 528.208 551.072 527.354 553.52 527.355H606.14C607.68 527.357 609.202 527.698 610.596 528.353C611.99 529.009 613.222 529.963 614.206 531.148C615.19 532.334 615.901 533.721 616.289 535.212C616.677 536.703 616.732 538.26 616.45 539.775L600.03 628.105C597.87 639.715 613.55 645.505 619.44 635.275L697.7 499.565C698.783 497.694 699.262 495.534 699.07 493.381C698.878 491.227 698.026 489.186 696.63 487.535Z" fill="#2574F5"/>
</g>
<defs>
<clipPath id="clip0_25_1258">
<rect width="936.7" height="683.5" fill="white" transform="translate(0 -42.885)"/>
</clipPath>
</defs>
</svg>
