<svg width="402" height="511" viewBox="0 0 402 511" fill="none" xmlns="http://www.w3.org/2000/svg">
<path d="M397.502 235.793L319.516 143.624C317.213 140.905 314.187 138.895 310.788 137.827C307.389 136.758 303.757 136.675 300.313 137.588C296.869 138.5 293.754 140.371 291.329 142.982C288.905 145.593 287.272 148.838 286.617 152.341L278.041 198.488C277.227 202.806 274.929 206.703 271.544 209.505C268.159 212.307 263.9 213.836 259.506 213.828H165.106C162.339 213.827 159.606 213.216 157.102 212.038C154.598 210.861 152.384 209.145 150.619 207.015C148.853 204.884 147.579 202.391 146.886 199.712C146.194 197.033 146.101 194.234 146.613 191.515L177.964 22.9357C181.827 2.11428 153.698 -8.26154 143.099 10.0774L2.7181 253.602C0.782509 256.961 -0.0693621 260.835 0.277551 264.696C0.624463 268.557 2.15346 272.217 4.65679 275.177L82.6427 367.402C84.9453 370.121 87.9716 372.131 91.3705 373.2C94.7695 374.268 98.4022 374.351 101.846 373.438C105.29 372.526 108.405 370.655 110.83 368.044C113.254 365.433 114.887 362.188 115.542 358.686L122.236 322.677C123.049 318.359 125.348 314.462 128.733 311.66C132.118 308.858 136.376 307.329 140.77 307.336H235.157C237.924 307.338 240.657 307.949 243.161 309.127C245.666 310.305 247.88 312.019 249.647 314.15C251.413 316.28 252.689 318.773 253.383 321.452C254.077 324.131 254.173 326.93 253.663 329.65L224.195 488.035C220.318 508.856 248.447 519.232 259.06 500.893L399.468 257.368C401.396 254.005 402.241 250.13 401.89 246.27C401.538 242.41 400.006 238.752 397.502 235.793Z" fill="#2574F5" fill-opacity="0.1"/>
</svg>
