<svg width="1440" height="379" viewBox="0 0 1440 379" fill="none" xmlns="http://www.w3.org/2000/svg">
<g opacity="0.6" clip-path="url(#clip0_247_5775)">
<path d="M190.974 388.721C189.532 388.723 188.102 388.467 186.75 387.966C184.135 387.065 181.938 385.242 180.57 382.838C179.203 380.434 178.759 377.614 179.322 374.906L197.076 279.342C197.376 277.747 197.32 276.105 196.913 274.534C196.506 272.963 195.758 271.5 194.721 270.251C193.684 269.002 192.384 267.997 190.915 267.307C189.445 266.618 187.842 266.261 186.219 266.262H129.305C126.722 266.261 124.22 267.165 122.234 268.816C120.247 270.467 118.901 272.762 118.429 275.302L114.348 297.014C113.944 299.189 112.931 301.204 111.427 302.825C109.922 304.446 107.989 305.606 105.851 306.171C103.712 306.735 101.457 306.68 99.3491 306.013C97.2406 305.346 95.3657 304.093 93.9416 302.402L46.9042 246.815C45.3604 244.981 44.4187 242.716 44.2069 240.328C43.9952 237.941 44.5235 235.546 45.7204 233.469L130.387 86.5426C131.761 84.1641 133.931 82.3475 136.514 81.4133C139.097 80.4791 141.927 80.4875 144.504 81.437C147.082 82.3865 149.241 84.216 150.601 86.6025C151.961 88.9891 152.434 91.7793 151.936 94.4807L133.04 196.166C132.743 197.761 132.802 199.401 133.21 200.971C133.618 202.541 134.367 204.002 135.403 205.25C136.439 206.498 137.737 207.503 139.204 208.194C140.672 208.884 142.274 209.244 143.896 209.246H200.83C203.413 209.247 205.915 208.343 207.902 206.692C209.888 205.041 211.235 202.746 211.707 200.206L216.869 172.372C217.273 170.198 218.285 168.183 219.79 166.562C221.294 164.941 223.228 163.78 225.367 163.216C227.505 162.651 229.76 162.706 231.868 163.373C233.977 164.04 235.852 165.293 237.276 166.985L284.313 222.572C285.857 224.406 286.799 226.67 287.01 229.058C287.222 231.446 286.693 233.841 285.496 235.918L200.83 382.844C199.875 384.625 198.453 386.113 196.717 387.149C194.981 388.184 192.995 388.727 190.974 388.721ZM129.285 265.629H186.199C187.908 265.631 189.596 266.008 191.143 266.735C192.69 267.461 194.058 268.519 195.151 269.834C196.243 271.148 197.033 272.687 197.464 274.341C197.896 275.995 197.958 277.723 197.647 279.404L179.873 374.967C179.427 377.516 179.889 380.14 181.178 382.384C182.467 384.628 184.502 386.348 186.929 387.246C189.356 388.144 192.021 388.162 194.46 387.298C196.899 386.434 198.959 384.743 200.279 382.517L284.945 235.591C286.077 233.62 286.576 231.348 286.372 229.085C286.167 226.821 285.27 224.675 283.803 222.939L236.868 167.352C235.517 165.752 233.739 164.569 231.742 163.939C229.744 163.31 227.609 163.261 225.585 163.798C223.561 164.334 221.729 165.434 220.306 166.97C218.882 168.506 217.924 170.415 217.543 172.474L212.38 200.288C211.881 202.965 210.46 205.382 208.366 207.123C206.272 208.863 203.635 209.816 200.912 209.818H143.978C142.267 209.817 140.577 209.439 139.028 208.711C137.479 207.984 136.109 206.924 135.016 205.607C133.924 204.29 133.135 202.749 132.705 201.092C132.275 199.436 132.215 197.705 132.529 196.023L151.426 94.3583C151.872 91.8093 151.41 89.1847 150.121 86.9412C148.832 84.6976 146.797 82.9772 144.37 82.0793C141.943 81.1813 139.277 81.1627 136.838 82.0267C134.399 82.8907 132.34 84.5826 131.02 86.8079L46.3532 233.734C45.2147 235.703 44.7137 237.976 44.9183 240.241C45.1229 242.507 46.0232 244.653 47.496 246.386L94.4308 301.973C95.7821 303.573 97.5599 304.756 99.5573 305.386C101.555 306.015 103.69 306.064 105.714 305.527C107.738 304.991 109.569 303.891 110.992 302.355C112.416 300.819 113.375 298.91 113.756 296.851L117.837 275.139C118.336 272.452 119.765 270.026 121.873 268.287C123.981 266.548 126.634 265.607 129.367 265.629H129.285Z" fill="#E9F1FF"/>
<path d="M399.589 308.869C398.148 308.859 396.72 308.604 395.365 308.114C392.749 307.21 390.551 305.383 389.184 302.975C387.816 300.567 387.373 297.744 387.937 295.034L405.711 199.491C406.011 197.894 405.956 196.25 405.548 194.677C405.139 193.105 404.389 191.641 403.35 190.392C402.312 189.142 401.009 188.138 399.537 187.449C398.065 186.761 396.459 186.406 394.834 186.41H337.92C335.338 186.414 332.839 187.319 330.853 188.969C328.867 190.62 327.52 192.912 327.045 195.45L322.963 217.163C322.57 219.344 321.563 221.367 320.061 222.996C318.558 224.625 316.622 225.792 314.48 226.36C312.338 226.927 310.078 226.872 307.966 226.201C305.854 225.53 303.978 224.271 302.557 222.57L255.622 166.983C254.075 165.152 253.129 162.888 252.914 160.5C252.699 158.113 253.223 155.717 254.418 153.638L339.084 6.71143C340.467 4.3404 342.64 2.53229 345.223 1.60475C347.806 0.677206 350.633 0.689554 353.208 1.63961C355.783 2.58966 357.941 4.41667 359.302 6.79967C360.664 9.18268 361.142 11.9693 360.653 14.6699L341.737 116.335C341.44 117.931 341.498 119.573 341.908 121.145C342.318 122.716 343.069 124.178 344.107 125.426C345.145 126.675 346.445 127.68 347.915 128.369C349.386 129.058 350.99 129.416 352.613 129.415H409.527C412.11 129.416 414.612 128.512 416.599 126.861C418.585 125.21 419.932 122.915 420.404 120.375L425.587 92.5612C425.98 90.3803 426.986 88.3567 428.489 86.7278C429.991 85.0988 431.928 83.9321 434.07 83.3644C436.212 82.7968 438.471 82.8517 440.583 83.5229C442.695 84.194 444.572 85.4534 445.994 87.1535L492.989 142.863C494.535 144.699 495.48 146.966 495.695 149.357C495.911 151.747 495.386 154.146 494.193 156.229L409.527 303.155C408.54 304.916 407.096 306.377 405.346 307.383C403.597 308.388 401.607 308.902 399.589 308.869ZM337.9 185.716H394.814C396.525 185.721 398.214 186.102 399.761 186.831C401.309 187.559 402.677 188.619 403.771 189.934C404.865 191.25 405.657 192.789 406.091 194.444C406.524 196.099 406.589 197.828 406.282 199.511L388.508 295.074C388.069 297.621 388.537 300.241 389.828 302.48C391.12 304.718 393.155 306.433 395.579 307.328C398.004 308.223 400.665 308.24 403.101 307.377C405.537 306.514 407.594 304.826 408.914 302.604L493.581 155.678C494.715 153.706 495.216 151.432 495.015 149.165C494.814 146.899 493.922 144.748 492.459 143.006L445.422 87.4188C444.07 85.8189 442.293 84.6355 440.295 84.0063C438.298 83.3771 436.163 83.3279 434.138 83.8644C432.114 84.4009 430.284 85.5012 428.86 87.0371C427.437 88.5731 426.479 90.4816 426.097 92.5408L420.934 120.375C420.434 123.052 419.014 125.47 416.92 127.21C414.825 128.95 412.188 129.904 409.465 129.905H352.553C350.843 129.903 349.154 129.525 347.606 128.799C346.059 128.073 344.689 127.015 343.595 125.701C342.501 124.387 341.709 122.849 341.275 121.195C340.841 119.541 340.776 117.812 341.084 116.131L360.001 14.4659C360.447 11.9169 359.985 9.29233 358.695 7.04879C357.406 4.80525 355.371 3.08481 352.944 2.18687C350.517 1.28893 347.853 1.27034 345.413 2.13432C342.974 2.99831 340.915 4.69016 339.594 6.91549L254.928 153.842C253.796 155.816 253.299 158.091 253.504 160.358C253.708 162.625 254.604 164.774 256.071 166.514L303.21 222.122C304.558 223.723 306.334 224.908 308.331 225.539C310.328 226.169 312.462 226.219 314.486 225.682C316.51 225.145 318.339 224.043 319.761 222.506C321.182 220.969 322.137 219.059 322.514 217L326.595 195.287C327.078 192.628 328.469 190.22 330.531 188.474C332.593 186.728 335.199 185.754 337.9 185.716Z" fill="#E9F1FF"/>
<path d="M148.672 627.737C147.223 627.738 145.786 627.482 144.427 626.982C141.815 626.077 139.62 624.254 138.253 621.851C136.887 619.448 136.441 616.629 136.999 613.922L154.773 518.358C155.069 516.764 155.012 515.123 154.603 513.553C154.195 511.983 153.446 510.523 152.41 509.275C151.374 508.026 150.076 507.021 148.608 506.331C147.14 505.64 145.539 505.281 143.917 505.278H86.9833C84.4 505.277 81.8975 506.181 79.9108 507.832C77.9241 509.483 76.5784 511.778 76.1065 514.318L72.0252 536.03C71.6368 538.215 70.6317 540.242 69.1287 541.874C67.6256 543.506 65.6879 544.674 63.5428 545.24C61.3978 545.806 59.135 545.747 57.0223 545.07C54.9097 544.393 53.0348 543.126 51.6188 541.418L4.58244 485.831C3.03546 483.999 2.08961 481.735 1.8742 479.348C1.65879 476.96 2.18358 474.564 3.37778 472.485L88.0445 325.559C89.4102 323.16 91.5833 321.324 94.1764 320.378C96.7694 319.432 99.6138 319.437 102.203 320.392C104.793 321.348 106.959 323.192 108.316 325.595C109.673 327.999 110.133 330.806 109.614 333.517L90.6969 435.182C90.4003 436.778 90.4587 438.421 90.8683 439.992C91.2779 441.563 92.0292 443.025 93.0674 444.274C94.1055 445.522 95.4054 446.527 96.8756 447.216C98.3458 447.906 99.9499 448.263 101.574 448.262H158.487C161.069 448.266 163.571 447.363 165.555 445.711C167.539 444.059 168.88 441.762 169.343 439.222L174.527 411.408C174.92 409.227 175.927 407.204 177.429 405.575C178.932 403.946 180.867 402.779 183.009 402.212C185.151 401.644 187.411 401.699 189.523 402.37C191.634 403.041 193.512 404.301 194.933 406.001L241.868 461.588C243.415 463.419 244.361 465.683 244.576 468.071C244.791 470.458 244.266 472.855 243.071 474.934L158.406 621.86C157.457 623.62 156.053 625.094 154.341 626.128C152.629 627.161 150.672 627.717 148.672 627.737ZM86.9016 504.645H143.835C145.547 504.646 147.237 505.024 148.785 505.752C150.334 506.479 151.704 507.539 152.797 508.856C153.89 510.173 154.679 511.714 155.109 513.371C155.538 515.027 155.598 516.758 155.283 518.44L137.509 613.983C137.063 616.532 137.525 619.156 138.814 621.4C140.104 623.643 142.14 625.364 144.567 626.262C146.993 627.16 149.658 627.178 152.097 626.314C154.537 625.45 156.595 623.759 157.916 621.533L242.602 474.607C243.731 472.632 244.226 470.357 244.022 468.091C243.818 465.825 242.924 463.676 241.46 461.935L194.423 406.348C193.074 404.746 191.298 403.561 189.301 402.93C187.305 402.3 185.17 402.25 183.147 402.787C181.123 403.324 179.294 404.426 177.873 405.963C176.451 407.5 175.496 409.41 175.118 411.47L169.935 439.284C169.443 441.96 168.028 444.38 165.937 446.121C163.845 447.863 161.209 448.815 158.487 448.813H101.574C99.8624 448.813 98.1723 448.435 96.6235 447.707C95.0747 446.979 93.7058 445.919 92.613 444.602C91.5202 443.286 90.7301 441.744 90.3003 440.088C89.8705 438.431 89.8113 436.701 90.126 435.019L109.022 333.354C109.468 330.805 109.006 328.18 107.717 325.937C106.427 323.693 104.392 321.973 101.965 321.075C99.5384 320.177 96.8736 320.158 94.4344 321.022C91.9953 321.886 89.936 323.578 88.6154 325.803L3.92879 472.73C2.80015 474.705 2.30457 476.979 2.50891 479.245C2.71326 481.511 3.60781 483.66 5.07167 485.402L52.0064 540.989C53.3589 542.583 55.1354 543.761 57.1299 544.386C59.1245 545.012 61.2554 545.059 63.2758 544.523C65.2962 543.987 67.1237 542.889 68.5458 541.357C69.9679 539.825 70.9263 537.922 71.3108 535.867L75.3921 514.155C75.8975 511.475 77.3252 509.056 79.4275 507.319C81.5299 505.582 84.1745 504.636 86.9016 504.645Z" fill="#E9F1FF"/>
<path d="M357.287 548.463C355.838 548.465 354.401 548.209 353.042 547.708C350.429 546.804 348.235 544.98 346.868 542.577C345.501 540.174 345.055 537.356 345.614 534.648L363.389 439.105C363.684 437.51 363.626 435.868 363.217 434.297C362.809 432.727 362.061 431.265 361.025 430.015C359.99 428.765 358.692 427.758 357.225 427.065C355.757 426.372 354.155 426.01 352.532 426.004H295.598C293.015 426.004 290.512 426.908 288.526 428.559C286.539 430.21 285.193 432.505 284.721 435.044L280.64 456.757C280.247 458.938 279.24 460.961 277.737 462.59C276.235 464.219 274.3 465.386 272.158 465.954C270.015 466.521 267.756 466.466 265.644 465.795C263.532 465.124 261.655 463.865 260.234 462.165L213.197 406.578C211.651 404.741 210.706 402.475 210.491 400.084C210.276 397.693 210.799 395.294 211.993 393.211L296.659 246.285C298.025 243.886 300.198 242.05 302.791 241.104C305.384 240.158 308.229 240.163 310.818 241.119C313.408 242.074 315.574 243.918 316.931 246.322C318.288 248.725 318.748 251.533 318.228 254.244L299.312 355.908C299.015 357.505 299.073 359.147 299.483 360.718C299.893 362.29 300.644 363.752 301.682 365C302.72 366.249 304.02 367.253 305.49 367.943C306.961 368.632 308.565 368.989 310.188 368.989H367.102C369.684 368.993 372.186 368.09 374.17 366.437C376.154 364.785 377.494 362.489 377.958 359.949L383.141 332.135C383.534 329.954 384.541 327.93 386.044 326.301C387.546 324.673 389.482 323.506 391.624 322.938C393.766 322.371 396.025 322.425 398.137 323.097C400.249 323.768 402.126 325.027 403.548 326.727L450.482 382.314C452.029 384.146 452.975 386.409 453.191 388.797C453.406 391.185 452.88 393.581 451.686 395.66L367.02 542.586C366.072 544.347 364.668 545.821 362.956 546.854C361.244 547.888 359.286 548.444 357.287 548.463ZM295.598 425.372H352.532C354.242 425.376 355.93 425.756 357.477 426.485C359.024 427.214 360.392 428.274 361.484 429.59C362.577 430.906 363.366 432.446 363.797 434.101C364.228 435.756 364.29 437.485 363.979 439.167L346.206 534.669C345.76 537.218 346.221 539.842 347.511 542.086C348.8 544.329 350.836 546.05 353.263 546.948C355.69 547.845 358.355 547.864 360.794 547C363.233 546.136 365.291 544.444 366.612 542.219L451.299 395.293C452.427 393.317 452.923 391.043 452.718 388.777C452.514 386.511 451.62 384.362 450.156 382.62L403.201 327.197C401.852 325.595 400.076 324.41 398.079 323.779C396.083 323.149 393.948 323.099 391.925 323.636C389.901 324.173 388.071 325.275 386.65 326.812C385.228 328.349 384.274 330.259 383.897 332.319L378.713 360.153C378.217 362.826 376.8 365.241 374.709 366.978C372.617 368.715 369.984 369.665 367.266 369.662H310.352C308.643 369.661 306.955 369.284 305.408 368.557C303.861 367.83 302.493 366.772 301.4 365.458C300.308 364.144 299.518 362.605 299.086 360.951C298.655 359.297 298.593 357.569 298.904 355.888L317.8 254.203C318.239 251.656 317.771 249.036 316.48 246.798C315.188 244.559 313.154 242.844 310.729 241.949C308.305 241.055 305.644 241.037 303.208 241.9C300.772 242.763 298.714 244.452 297.394 246.673L212.707 393.599C211.578 395.575 211.083 397.849 211.287 400.115C211.491 402.381 212.386 404.53 213.85 406.271L260.886 461.859C262.235 463.46 264.011 464.645 266.008 465.276C268.004 465.906 270.14 465.956 272.164 465.419C274.187 464.882 276.016 463.78 277.438 462.243C278.859 460.706 279.814 458.796 280.192 456.736L284.273 435.024C284.743 432.349 286.13 429.921 288.198 428.159C290.265 426.397 292.882 425.412 295.598 425.372Z" fill="#E9F1FF"/>
<path d="M563.575 469.182C562.133 469.181 560.703 468.925 559.351 468.427C556.736 467.527 554.538 465.703 553.171 463.299C551.804 460.895 551.36 458.075 551.923 455.367L569.697 359.804C569.993 358.207 569.935 356.565 569.525 354.994C569.116 353.422 568.365 351.961 567.327 350.712C566.289 349.463 564.988 348.459 563.518 347.769C562.048 347.08 560.444 346.723 558.82 346.723H501.907C499.324 346.723 496.821 347.626 494.834 349.278C492.848 350.929 491.502 353.223 491.03 355.763L486.949 377.476C486.553 379.655 485.544 381.676 484.04 383.303C482.537 384.929 480.6 386.093 478.459 386.658C476.317 387.224 474.059 387.167 471.948 386.495C469.838 385.823 467.963 384.563 466.543 382.863L419.608 327.276C418.061 325.444 417.115 323.181 416.9 320.793C416.684 318.405 417.21 316.009 418.404 313.93L503.07 167.004C504.436 164.605 506.609 162.769 509.202 161.823C511.795 160.877 514.639 160.882 517.229 161.838C519.818 162.793 521.986 164.637 523.343 167.04C524.7 169.444 525.159 172.251 524.639 174.962L505.723 276.627C505.427 278.224 505.485 279.866 505.895 281.437C506.304 283.008 507.054 284.47 508.093 285.719C509.131 286.967 510.431 287.972 511.901 288.661C513.371 289.351 514.975 289.708 516.599 289.708H573.513C576.096 289.708 578.599 288.804 580.585 287.153C582.572 285.502 583.918 283.207 584.39 280.668L589.573 252.854C589.966 250.673 590.973 248.649 592.475 247.02C593.978 245.391 595.913 244.225 598.055 243.657C600.197 243.089 602.457 243.144 604.569 243.815C606.681 244.486 608.558 245.746 609.979 247.446L657.016 303.033C658.563 304.865 659.508 307.128 659.724 309.516C659.939 311.904 659.414 314.3 658.219 316.379L573.554 463.305C572.583 465.101 571.141 466.597 569.383 467.633C567.624 468.669 565.615 469.204 563.575 469.182ZM501.907 346.091H558.82C560.532 346.092 562.222 346.47 563.772 347.197C565.321 347.925 566.692 348.985 567.786 350.301C568.881 351.617 569.673 353.158 570.105 354.815C570.537 356.471 570.6 358.202 570.288 359.885L552.514 455.428C552.069 457.977 552.53 460.602 553.82 462.845C555.109 465.089 557.144 466.809 559.571 467.707C561.998 468.605 564.663 468.624 567.102 467.76C569.541 466.896 571.6 465.204 572.921 462.978L657.588 316.052C658.725 314.081 659.227 311.806 659.026 309.539C658.826 307.272 657.932 305.121 656.466 303.38L609.53 247.793C608.179 246.193 606.401 245.01 604.403 244.38C602.406 243.751 600.271 243.702 598.247 244.239C596.222 244.775 594.392 245.875 592.969 247.411C591.545 248.947 590.587 250.856 590.206 252.915L585.042 280.729C584.546 283.407 583.128 285.827 581.033 287.568C578.938 289.309 576.299 290.261 573.575 290.259H516.661C514.949 290.257 513.258 289.879 511.709 289.152C510.159 288.424 508.788 287.365 507.694 286.048C506.6 284.732 505.809 283.191 505.376 281.535C504.944 279.878 504.881 278.147 505.192 276.464L524.109 174.799C524.555 172.25 524.093 169.626 522.804 167.382C521.514 165.139 519.479 163.418 517.052 162.52C514.626 161.622 511.961 161.604 509.522 162.468C507.082 163.332 505.023 165.023 503.703 167.249L419.036 314.175C417.904 316.15 417.408 318.424 417.612 320.691C417.816 322.958 418.712 325.107 420.179 326.847L467.216 382.434C468.569 384.028 470.345 385.206 472.34 385.831C474.334 386.457 476.465 386.504 478.485 385.968C480.506 385.432 482.332 384.335 483.754 382.803C485.177 381.271 486.136 379.367 486.52 377.312L490.602 355.6C491.097 352.953 492.493 350.558 494.555 348.825C496.616 347.091 499.214 346.125 501.907 346.091Z" fill="#E9F1FF"/>
<path d="M772.128 389.328C770.679 389.329 769.242 389.074 767.883 388.573C765.27 387.665 763.076 385.836 761.713 383.429C760.35 381.022 759.911 378.201 760.476 375.493L778.23 279.95C778.53 278.354 778.473 276.713 778.066 275.141C777.659 273.57 776.911 272.108 775.874 270.859C774.838 269.609 773.539 268.604 772.07 267.915C770.6 267.225 768.996 266.868 767.373 266.869H710.438C707.858 266.868 705.36 267.769 703.374 269.416C701.387 271.063 700.039 273.353 699.563 275.889L695.482 297.601C695.089 299.782 694.081 301.806 692.579 303.435C691.076 305.064 689.141 306.23 686.999 306.798C684.857 307.366 682.596 307.311 680.484 306.64C678.372 305.968 676.497 304.709 675.076 303.009L628.037 247.422C626.49 245.59 625.546 243.327 625.331 240.939C625.116 238.551 625.639 236.155 626.834 234.076L711.52 87.1499C712.894 84.767 715.066 82.9468 717.652 82.0112C720.238 81.0757 723.073 81.0852 725.653 82.038C728.233 82.9909 730.392 84.8256 731.749 87.2177C733.107 89.6097 733.576 92.4049 733.071 95.1084L714.173 196.773C713.869 198.369 713.923 200.012 714.328 201.585C714.734 203.158 715.481 204.622 716.518 205.872C717.556 207.122 718.857 208.127 720.328 208.815C721.8 209.504 723.405 209.858 725.03 209.854H781.942C784.525 209.85 787.025 208.945 789.011 207.295C790.997 205.644 792.344 203.352 792.819 200.814L797.982 172.979C798.378 170.8 799.388 168.779 800.892 167.152C802.396 165.526 804.33 164.362 806.472 163.797C808.613 163.231 810.872 163.288 812.982 163.96C815.093 164.632 816.969 165.892 818.389 167.592L865.324 223.179C866.871 225.011 867.816 227.274 868.032 229.662C868.247 232.05 867.721 234.446 866.527 236.525L781.861 383.451C780.914 385.213 779.512 386.688 777.799 387.722C776.087 388.756 774.128 389.311 772.128 389.328ZM710.438 266.216H767.373C769.082 266.218 770.77 266.595 772.317 267.321C773.864 268.048 775.232 269.106 776.325 270.421C777.417 271.735 778.207 273.274 778.638 274.928C779.07 276.581 779.133 278.31 778.822 279.991L761.048 375.554C760.629 378.093 761.107 380.699 762.401 382.925C763.694 385.15 765.72 386.855 768.134 387.748C770.548 388.642 773.199 388.667 775.629 387.819C778.059 386.972 780.119 385.305 781.454 383.104L866.119 236.178C867.25 234.203 867.748 231.929 867.544 229.662C867.339 227.395 866.443 225.246 864.977 223.506L818.042 167.919C816.69 166.325 814.913 165.147 812.919 164.521C810.924 163.896 808.793 163.849 806.773 164.385C804.752 164.921 802.926 166.018 801.504 167.55C800.082 169.082 799.122 170.986 798.738 173.041L793.554 200.875C793.063 203.552 791.649 205.971 789.557 207.713C787.465 209.454 784.827 210.407 782.106 210.405H725.193C723.483 210.4 721.794 210.02 720.247 209.291C718.7 208.562 717.333 207.502 716.241 206.186C715.149 204.87 714.359 203.331 713.928 201.676C713.496 200.021 713.433 198.292 713.744 196.61L732.642 94.9452C733.088 92.3962 732.626 89.7716 731.337 87.5281C730.047 85.2846 728.01 83.5641 725.584 82.6662C723.157 81.7683 720.492 81.7497 718.053 82.6136C715.614 83.4776 713.556 85.1695 712.236 87.3948L627.569 234.321C626.432 236.293 625.929 238.567 626.13 240.834C626.331 243.102 627.225 245.252 628.691 246.993L675.626 302.58C676.977 304.18 678.754 305.364 680.751 305.993C682.749 306.622 684.885 306.671 686.909 306.135C688.933 305.598 690.764 304.498 692.188 302.962C693.612 301.426 694.569 299.518 694.95 297.458L699.031 275.746C699.533 273.081 700.946 270.674 703.027 268.935C705.108 267.197 707.727 266.236 710.438 266.216Z" fill="#E9F1FF"/>
<path d="M729.805 628.949C728.364 628.941 726.936 628.685 725.582 628.194C722.965 627.289 720.767 625.462 719.4 623.055C718.033 620.647 717.589 617.824 718.153 615.113L735.907 519.57C736.21 517.975 736.157 516.332 735.751 514.759C735.346 513.186 734.598 511.722 733.561 510.472C732.524 509.222 731.222 508.217 729.751 507.528C728.279 506.84 726.674 506.485 725.05 506.49H668.137C665.555 506.493 663.054 507.398 661.069 509.049C659.083 510.7 657.736 512.992 657.26 515.53L653.179 537.242C652.778 539.418 651.769 541.436 650.265 543.059C648.762 544.683 646.828 545.846 644.69 546.413C642.551 546.979 640.295 546.927 638.185 546.26C636.075 545.594 634.198 544.342 632.773 542.65L585.736 487.063C584.192 485.229 583.251 482.965 583.039 480.577C582.827 478.189 583.355 475.794 584.552 473.717L669.219 326.791C670.524 324.284 672.695 322.337 675.329 321.312C677.963 320.288 680.881 320.255 683.537 321.221C686.194 322.187 688.407 324.086 689.767 326.564C691.127 329.041 691.541 331.929 690.931 334.688L672.035 436.353C671.735 437.948 671.789 439.59 672.196 441.162C672.603 442.733 673.352 444.195 674.388 445.444C675.425 446.693 676.725 447.699 678.195 448.388C679.664 449.078 681.267 449.435 682.89 449.434H739.824C742.405 449.435 744.905 448.534 746.891 446.887C748.877 445.24 750.225 442.95 750.701 440.414L755.865 412.58C756.258 410.399 757.264 408.375 758.766 406.746C760.269 405.117 762.204 403.95 764.346 403.383C766.488 402.815 768.749 402.87 770.861 403.541C772.973 404.212 774.85 405.472 776.271 407.172L823.206 462.759C824.749 464.597 825.688 466.865 825.9 469.256C826.112 471.646 825.585 474.044 824.39 476.125L739.723 623.051C738.766 624.846 737.334 626.344 735.586 627.384C733.838 628.423 731.839 628.965 729.805 628.949ZM668.117 505.837H725.03C726.74 505.841 728.429 506.221 729.976 506.95C731.523 507.679 732.889 508.739 733.982 510.055C735.074 511.371 735.864 512.911 736.295 514.566C736.726 516.221 736.789 517.95 736.479 519.632L718.705 615.195C718.266 617.742 718.732 620.362 720.024 622.6C721.316 624.838 723.351 626.554 725.775 627.448C728.2 628.343 730.86 628.361 733.296 627.498C735.732 626.635 737.79 624.946 739.111 622.725L823.776 475.799C824.907 473.824 825.405 471.549 825.201 469.283C824.996 467.016 824.1 464.867 822.634 463.126L775.699 407.539C774.348 405.939 772.569 404.756 770.572 404.127C768.574 403.498 766.44 403.448 764.416 403.985C762.392 404.521 760.56 405.622 759.137 407.158C757.713 408.694 756.756 410.602 756.375 412.661L751.191 440.496C750.696 443.171 749.279 445.588 747.188 447.329C745.097 449.069 742.463 450.023 739.743 450.025H682.808C681.099 450.024 679.411 449.647 677.864 448.92C676.317 448.194 674.949 447.136 673.856 445.821C672.764 444.507 671.974 442.968 671.543 441.314C671.111 439.66 671.05 437.932 671.361 436.251L690.257 334.586C690.703 332.037 690.241 329.413 688.952 327.169C687.663 324.926 685.628 323.205 683.201 322.307C680.774 321.409 678.109 321.391 675.67 322.255C673.231 323.119 671.171 324.811 669.851 327.036L585.185 473.962C584.048 475.935 583.547 478.211 583.751 480.479C583.956 482.747 584.856 484.897 586.328 486.635L633.263 542.222C634.614 543.822 636.391 545.005 638.388 545.634C640.386 546.263 642.522 546.313 644.546 545.776C646.57 545.239 648.399 544.139 649.823 542.603C651.247 541.067 652.206 539.159 652.587 537.1L656.668 515.387C657.16 512.708 658.575 510.286 660.666 508.542C662.757 506.797 665.394 505.84 668.117 505.837Z" fill="#E9F1FF"/>
<path d="M936.114 549.648C934.666 549.649 933.229 549.394 931.87 548.893C929.258 547.989 927.065 546.164 925.702 543.76C924.338 541.356 923.898 538.538 924.462 535.833L942.214 440.27C942.518 438.675 942.464 437.033 942.055 435.462C941.645 433.892 940.892 432.432 939.849 431.189C938.82 429.928 937.525 428.908 936.058 428.203C934.591 427.498 932.987 427.124 931.359 427.108H874.425C871.841 427.107 869.339 428.011 867.352 429.662C865.365 431.313 864.02 433.608 863.548 436.148L859.467 457.86C859.074 460.041 858.068 462.064 856.565 463.693C855.063 465.322 853.127 466.489 850.985 467.057C848.843 467.624 846.583 467.569 844.471 466.898C842.359 466.227 840.482 464.968 839.06 463.268L792.125 407.681C790.579 405.844 789.635 403.578 789.419 401.187C789.204 398.796 789.729 396.397 790.922 394.314L875.608 247.388C876.982 245.005 879.154 243.185 881.74 242.249C884.327 241.314 887.161 241.323 889.741 242.276C892.321 243.229 894.48 245.064 895.837 247.456C897.195 249.848 897.662 252.643 897.157 255.347L878.261 357.134C877.961 358.729 878.017 360.371 878.424 361.942C878.831 363.514 879.58 364.976 880.616 366.225C881.653 367.474 882.951 368.479 884.421 369.169C885.89 369.858 887.494 370.215 889.118 370.214H946.03C948.614 370.215 951.116 369.311 953.103 367.66C955.09 366.009 956.435 363.714 956.907 361.174L962.071 333.36C962.464 331.18 963.47 329.156 964.972 327.527C966.475 325.898 968.41 324.731 970.552 324.164C972.694 323.596 974.955 323.651 977.067 324.322C979.179 324.993 981.056 326.253 982.477 327.953L1029.41 383.54C1030.96 385.371 1031.9 387.635 1032.12 390.023C1032.34 392.411 1031.81 394.807 1030.62 396.886L945.949 543.812C944.986 545.58 943.565 547.055 941.834 548.082C940.102 549.11 938.127 549.651 936.114 549.648ZM874.425 426.516H931.359C933.071 426.516 934.761 426.894 936.31 427.622C937.858 428.35 939.226 429.41 940.319 430.727C941.412 432.043 942.203 433.585 942.633 435.241C943.063 436.898 943.121 438.628 942.806 440.31L925.032 535.853C924.586 538.402 925.048 541.027 926.337 543.27C927.627 545.514 929.662 547.234 932.089 548.132C934.516 549.03 937.18 549.049 939.62 548.185C942.059 547.321 944.118 545.629 945.439 543.404L1030.11 396.477C1031.24 394.503 1031.73 392.228 1031.53 389.961C1031.33 387.695 1030.43 385.546 1028.96 383.805L981.925 328.218C980.577 326.616 978.802 325.431 976.805 324.801C974.809 324.17 972.673 324.121 970.65 324.658C968.626 325.195 966.796 326.296 965.375 327.833C963.953 329.371 962.998 331.281 962.621 333.34L957.437 361.174C956.941 363.847 955.525 366.262 953.434 368C951.342 369.737 948.709 370.686 945.991 370.684H889.076C887.367 370.682 885.679 370.305 884.132 369.578C882.585 368.852 881.217 367.794 880.124 366.479C879.032 365.165 878.242 363.626 877.81 361.972C877.379 360.319 877.318 358.59 877.629 356.909L896.525 255.224C896.964 252.677 896.497 250.057 895.206 247.819C893.914 245.581 891.879 243.865 889.454 242.971C887.03 242.076 884.368 242.059 881.932 242.922C879.496 243.784 877.439 245.473 876.119 247.694L791.452 394.62C790.318 396.593 789.818 398.867 790.019 401.133C790.22 403.4 791.111 405.55 792.574 407.293L839.612 462.88C840.964 464.48 842.74 465.663 844.738 466.292C846.735 466.922 848.871 466.971 850.896 466.434C852.92 465.898 854.749 464.798 856.173 463.262C857.596 461.726 858.555 459.817 858.937 457.758L863.018 436.046C863.508 433.376 864.916 430.961 866.999 429.221C869.083 427.48 871.71 426.523 874.425 426.516Z" fill="#E9F1FF"/>
<path d="M1144.65 469.799C1143.2 469.801 1141.77 469.545 1140.42 469.044C1137.81 468.143 1135.61 466.32 1134.24 463.916C1132.88 461.512 1132.43 458.692 1132.99 455.984L1150.77 360.421C1151.06 358.824 1151.01 357.182 1150.6 355.611C1150.19 354.039 1149.44 352.577 1148.4 351.329C1147.36 350.08 1146.06 349.076 1144.59 348.386C1143.12 347.697 1141.52 347.34 1139.89 347.34H1082.98C1080.4 347.336 1077.89 348.239 1075.91 349.891C1073.93 351.544 1072.59 353.84 1072.12 356.38L1068.04 378.092C1067.64 380.267 1066.63 382.282 1065.12 383.903C1063.62 385.524 1061.68 386.684 1059.54 387.249C1057.4 387.813 1055.15 387.759 1053.04 387.091C1050.93 386.424 1049.06 385.172 1047.63 383.48L1000.7 327.893C999.15 326.062 998.203 323.799 997.987 321.41C997.772 319.022 998.299 316.625 999.496 314.547L1084.16 167.621C1085.54 165.242 1087.71 163.426 1090.29 162.491C1092.87 161.557 1095.7 161.566 1098.28 162.515C1100.86 163.465 1103.02 165.294 1104.38 167.681C1105.74 170.067 1106.21 172.857 1105.71 175.559L1086.81 277.264C1086.52 278.86 1086.58 280.502 1086.99 282.072C1087.39 283.643 1088.14 285.105 1089.18 286.355C1090.21 287.605 1091.51 288.611 1092.98 289.304C1094.45 289.997 1096.05 290.36 1097.67 290.365H1154.6C1157.19 290.366 1159.69 289.462 1161.68 287.811C1163.66 286.16 1165.01 283.865 1165.48 281.325L1170.66 253.491C1171.06 251.312 1172.07 249.29 1173.57 247.664C1175.08 246.038 1177.01 244.873 1179.16 244.308C1181.3 243.743 1183.56 243.799 1185.67 244.472C1187.78 245.144 1189.65 246.404 1191.07 248.104L1238.11 303.691C1239.65 305.525 1240.59 307.788 1240.81 310.174C1241.02 312.561 1240.5 314.956 1239.31 317.036L1154.63 463.963C1153.66 465.755 1152.21 467.247 1150.45 468.276C1148.69 469.305 1146.68 469.832 1144.65 469.799ZM1082.96 346.707H1139.87C1141.58 346.709 1143.27 347.086 1144.82 347.813C1146.36 348.539 1147.73 349.597 1148.82 350.912C1149.92 352.226 1150.71 353.765 1151.14 355.419C1151.57 357.073 1151.63 358.801 1151.32 360.482L1133.57 456.045C1133.12 458.594 1133.58 461.219 1134.87 463.462C1136.16 465.706 1138.2 467.426 1140.62 468.324C1143.05 469.222 1145.71 469.241 1148.15 468.377C1150.59 467.513 1152.65 465.821 1153.97 463.595L1238.64 316.669C1239.78 314.7 1240.28 312.427 1240.07 310.162C1239.87 307.897 1238.97 305.75 1237.5 304.017L1190.56 248.43C1189.21 246.83 1187.43 245.647 1185.44 245.018C1183.44 244.388 1181.3 244.339 1179.28 244.876C1177.25 245.412 1175.42 246.513 1174 248.048C1172.58 249.584 1171.62 251.493 1171.24 253.552L1166.07 281.366C1165.57 284.043 1164.15 286.461 1162.06 288.201C1159.97 289.941 1157.33 290.895 1154.6 290.896H1097.67C1095.96 290.891 1094.27 290.511 1092.73 289.782C1091.18 289.054 1089.81 287.994 1088.72 286.678C1087.63 285.362 1086.84 283.822 1086.41 282.167C1085.97 280.512 1085.91 278.783 1086.22 277.101L1105.18 175.518C1105.63 172.969 1105.16 170.344 1103.88 168.101C1102.59 165.857 1100.55 164.137 1098.12 163.239C1095.7 162.341 1093.03 162.322 1090.59 163.186C1088.15 164.05 1086.09 165.742 1084.77 167.968L1000.11 314.894C998.975 316.865 998.478 319.136 998.683 321.4C998.887 323.664 999.784 325.81 1001.25 327.546L1048.19 383.133C1049.54 384.733 1051.31 385.916 1053.31 386.545C1055.31 387.175 1057.45 387.224 1059.47 386.687C1061.49 386.151 1063.32 385.05 1064.75 383.515C1066.17 381.979 1067.13 380.07 1067.51 378.011L1071.59 356.298C1072.07 353.624 1073.47 351.201 1075.54 349.449C1077.62 347.697 1080.24 346.727 1082.96 346.707Z" fill="#E9F1FF"/>
<path d="M1308.63 630.128C1307.19 630.123 1305.76 629.86 1304.41 629.353C1301.8 628.448 1299.6 626.623 1298.24 624.22C1296.88 621.816 1296.44 618.998 1297 616.292L1314.77 520.75C1315.08 519.153 1315.02 517.509 1314.61 515.936C1314.2 514.363 1313.45 512.9 1312.41 511.651C1311.37 510.401 1310.07 509.396 1308.6 508.708C1307.13 508.02 1305.52 507.665 1303.9 507.669H1246.99C1244.4 507.669 1241.9 508.574 1239.92 510.225C1237.94 511.877 1236.6 514.171 1236.13 516.709L1232.05 538.422C1231.65 540.602 1230.65 542.626 1229.15 544.255C1227.64 545.884 1225.71 547.051 1223.56 547.618C1221.42 548.186 1219.16 548.131 1217.05 547.46C1214.94 546.789 1213.06 545.529 1211.64 543.829L1164.71 488.242C1163.16 486.412 1162.21 484.148 1161.99 481.76C1161.78 479.371 1162.31 476.974 1163.5 474.896L1248.17 327.97C1249.54 325.587 1251.71 323.767 1254.3 322.832C1256.89 321.896 1259.72 321.905 1262.3 322.858C1264.88 323.811 1267.04 325.646 1268.4 328.038C1269.76 330.43 1270.22 333.225 1269.72 335.929L1250.82 437.593C1250.53 439.188 1250.58 440.829 1250.99 442.399C1251.4 443.968 1252.15 445.429 1253.18 446.677C1254.22 447.926 1255.52 448.931 1256.99 449.621C1258.45 450.312 1260.06 450.671 1261.68 450.674H1318.61C1321.19 450.675 1323.7 449.771 1325.68 448.12C1327.67 446.468 1329.02 444.174 1329.49 441.634L1334.67 413.82C1335.06 411.639 1336.07 409.615 1337.57 407.987C1339.07 406.358 1341.01 405.191 1343.15 404.623C1345.3 404.056 1347.55 404.111 1349.67 404.782C1351.78 405.453 1353.66 406.712 1355.08 408.412L1402.01 463.999C1403.55 465.838 1404.49 468.104 1404.71 470.494C1404.92 472.883 1404.4 475.281 1403.22 477.366L1318.53 624.292C1317.57 626.072 1316.14 627.556 1314.39 628.584C1312.65 629.612 1310.66 630.146 1308.63 630.128ZM1246.94 507.016H1303.86C1305.57 507.021 1307.26 507.401 1308.8 508.129C1310.35 508.858 1311.72 509.918 1312.81 511.234C1313.9 512.55 1314.69 514.09 1315.12 515.745C1315.55 517.4 1315.62 519.129 1315.3 520.811L1297.55 616.374C1297.11 618.921 1297.58 621.541 1298.87 623.779C1300.16 626.018 1302.2 627.733 1304.62 628.628C1307.05 629.522 1309.71 629.54 1312.14 628.677C1314.58 627.814 1316.64 626.125 1317.96 623.904L1402.62 476.978C1403.76 475.005 1404.26 472.729 1404.06 470.461C1403.85 468.193 1402.95 466.043 1401.48 464.305L1354.55 408.718C1353.2 407.119 1351.42 405.935 1349.42 405.306C1347.42 404.677 1345.29 404.627 1343.26 405.164C1341.24 405.701 1339.41 406.801 1337.99 408.337C1336.56 409.873 1335.6 411.781 1335.22 413.84L1330.06 441.675C1329.56 444.35 1328.14 446.765 1326.04 448.505C1323.95 450.245 1321.31 451.199 1318.59 451.205H1261.66C1259.95 451.203 1258.26 450.826 1256.71 450.099C1255.17 449.373 1253.8 448.315 1252.7 447C1251.61 445.686 1250.82 444.147 1250.39 442.493C1249.96 440.839 1249.9 439.111 1250.21 437.43L1269.13 335.765C1269.57 333.217 1269.11 330.592 1267.82 328.348C1266.53 326.105 1264.5 324.384 1262.07 323.486C1259.64 322.589 1256.98 322.57 1254.54 323.434C1252.1 324.298 1250.04 325.99 1248.72 328.215L1164.05 475.141C1162.92 477.116 1162.42 479.391 1162.63 481.657C1162.83 483.924 1163.73 486.073 1165.2 487.814L1212.13 543.401C1213.48 545.001 1215.26 546.184 1217.26 546.813C1219.25 547.442 1221.39 547.492 1223.41 546.955C1225.44 546.419 1227.27 545.318 1228.69 543.782C1230.11 542.246 1231.07 540.338 1231.46 538.279L1235.54 516.566C1236.02 513.893 1237.43 511.474 1239.51 509.729C1241.6 507.985 1244.23 507.025 1246.94 507.016Z" fill="#E9F1FF"/>
<path d="M1517.19 550.254C1515.74 550.255 1514.3 550 1512.94 549.499C1510.33 548.595 1508.14 546.771 1506.77 544.368C1505.4 541.965 1504.95 539.146 1505.51 536.439L1523.29 440.876C1523.58 439.281 1523.53 437.64 1523.12 436.07C1522.71 434.501 1521.96 433.04 1520.92 431.792C1519.89 430.543 1518.59 429.538 1517.12 428.848C1515.66 428.157 1514.05 427.798 1512.43 427.795H1455.5C1452.91 427.794 1450.41 428.698 1448.42 430.349C1446.44 432.001 1445.09 434.295 1444.62 436.835L1440.54 458.547C1440.14 460.727 1439.14 462.748 1437.63 464.374C1436.13 466.001 1434.19 467.165 1432.05 467.73C1429.91 468.296 1427.65 468.239 1425.54 467.567C1423.43 466.894 1421.55 465.635 1420.13 463.935L1373.2 408.348C1371.65 406.516 1370.71 404.253 1370.49 401.865C1370.27 399.477 1370.8 397.081 1371.99 395.002L1456.66 248.076C1458.03 245.682 1460.2 243.849 1462.79 242.905C1465.38 241.96 1468.22 241.964 1470.8 242.916C1473.39 243.868 1475.56 245.707 1476.92 248.105C1478.28 250.503 1478.74 253.305 1478.23 256.014L1459.31 357.699C1459.02 359.295 1459.08 360.938 1459.48 362.509C1459.89 364.08 1460.64 365.542 1461.68 366.791C1462.72 368.039 1464.02 369.044 1465.49 369.733C1466.96 370.423 1468.57 370.78 1470.19 370.779H1527.1C1529.68 370.783 1532.19 369.88 1534.17 368.228C1536.16 366.576 1537.5 364.279 1537.96 361.739L1543.14 333.905C1543.55 331.731 1544.56 329.716 1546.06 328.095C1547.57 326.474 1549.5 325.313 1551.64 324.749C1553.78 324.184 1556.03 324.239 1558.14 324.906C1560.25 325.573 1562.13 326.826 1563.55 328.518L1610.48 384.105C1612.03 385.936 1612.98 388.2 1613.19 390.588C1613.41 392.976 1612.88 395.372 1611.69 397.451L1527.02 544.377C1526.07 546.154 1524.65 547.639 1522.92 548.674C1521.18 549.708 1519.2 550.255 1517.19 550.254ZM1455.5 427.162H1512.43C1514.14 427.163 1515.83 427.541 1517.38 428.269C1518.93 428.996 1520.3 430.056 1521.39 431.373C1522.48 432.69 1523.28 434.232 1523.71 435.888C1524.13 437.544 1524.19 439.275 1523.88 440.957L1506.1 536.5C1505.66 539.049 1506.12 541.673 1507.41 543.917C1508.7 546.161 1510.73 547.881 1513.16 548.779C1515.59 549.677 1518.25 549.695 1520.69 548.831C1523.13 547.967 1525.19 546.276 1526.51 544.05L1611.2 397.124C1612.33 395.149 1612.82 392.874 1612.62 390.608C1612.41 388.342 1611.52 386.194 1610.06 384.452L1563.02 328.865C1561.67 327.263 1559.89 326.078 1557.9 325.448C1555.9 324.817 1553.77 324.768 1551.74 325.304C1549.72 325.841 1547.89 326.943 1546.47 328.48C1545.05 330.017 1544.09 331.927 1543.72 333.987L1538.53 361.801C1538.04 364.477 1536.62 366.897 1534.53 368.638C1532.44 370.38 1529.8 371.332 1527.08 371.33H1470.17C1468.46 371.33 1466.77 370.952 1465.22 370.224C1463.67 369.496 1462.3 368.436 1461.21 367.12C1460.12 365.803 1459.33 364.261 1458.9 362.605C1458.47 360.949 1458.41 359.218 1458.72 357.536L1477.62 255.871C1478.06 253.322 1477.6 250.697 1476.31 248.454C1475.02 246.21 1472.99 244.49 1470.56 243.592C1468.13 242.694 1465.47 242.675 1463.03 243.539C1460.59 244.403 1458.53 246.095 1457.21 248.321L1372.52 395.247C1371.4 397.219 1370.9 399.49 1371.11 401.752C1371.31 404.015 1372.21 406.16 1373.67 407.899L1420.7 463.486C1422.05 465.087 1423.83 466.273 1425.83 466.903C1427.82 467.533 1429.96 467.583 1431.98 467.046C1434 466.509 1435.83 465.408 1437.25 463.87C1438.68 462.333 1439.63 460.423 1440.01 458.364L1444.09 436.651C1444.6 433.992 1446.01 431.592 1448.09 429.861C1450.17 428.13 1452.79 427.176 1455.5 427.162Z" fill="#E9F1FF"/>
</g>
<defs>
<clipPath id="clip0_247_5775">
<rect width="1786.6" height="1831.5" fill="white" transform="translate(-173.301 0.855469)"/>
</clipPath>
</defs>
</svg>
