<svg width="478" height="456" viewBox="0 0 478 456" fill="none" xmlns="http://www.w3.org/2000/svg">
<g opacity="0.1" clip-path="url(#clip0_56_4159)">
<path d="M459.051 88.12L415.581 36.74C414.298 35.223 412.611 34.1011 410.715 33.5047C408.82 32.9083 406.795 32.8619 404.874 33.3708C402.954 33.8798 401.217 34.9232 399.866 36.3799C398.514 37.8365 397.604 39.6467 397.241 41.6L392.461 67.32C392.014 69.7324 390.736 71.9119 388.849 73.4795C386.961 75.0471 384.584 75.9036 382.131 75.9H329.511C327.97 75.8996 326.447 75.5598 325.052 74.9049C323.657 74.2499 322.423 73.2959 321.438 72.1104C320.453 70.925 319.741 69.5372 319.353 68.0456C318.964 66.5541 318.909 64.9953 319.191 63.48L336.671 -30.52C338.831 -42.13 323.151 -47.91 317.251 -37.69L238.981 98.05C237.906 99.9188 237.433 102.073 237.626 104.221C237.819 106.368 238.67 108.403 240.061 110.05L283.541 161.44C284.823 162.958 286.509 164.081 288.404 164.678C290.299 165.274 292.324 165.321 294.244 164.812C296.164 164.303 297.901 163.259 299.251 161.802C300.601 160.344 301.51 158.533 301.871 156.58L305.611 136.5C306.059 134.088 307.338 131.91 309.225 130.343C311.112 128.776 313.488 127.918 315.941 127.92L368.551 127.97C370.092 127.969 371.614 128.307 373.009 128.961C374.404 129.615 375.638 130.568 376.624 131.753C377.609 132.938 378.321 134.325 378.709 135.816C379.098 137.307 379.153 138.865 378.871 140.38L362.441 228.74C360.291 240.34 375.971 246.13 381.861 235.9L460.131 100.15C461.21 98.2771 461.685 96.1171 461.492 93.9644C461.298 91.8116 460.446 89.7708 459.051 88.12Z" fill="#2574F5"/>
<path d="M696.631 88.12L653.161 36.74C651.878 35.223 650.191 34.1011 648.296 33.5047C646.4 32.9083 644.375 32.8619 642.454 33.3708C640.534 33.8798 638.797 34.9232 637.446 36.3799C636.094 37.8365 635.184 39.6467 634.821 41.6L630.041 67.32C629.594 69.7341 628.314 71.9149 626.425 73.4827C624.536 75.0505 622.156 75.9059 619.701 75.9H567.081C565.54 75.8999 564.018 75.5602 562.623 74.9052C561.228 74.2502 559.995 73.2959 559.01 72.1102C558.026 70.9245 557.315 69.5365 556.928 68.0449C556.541 66.5533 556.487 64.9947 556.771 63.48L574.241 -30.52C576.401 -42.13 560.721 -47.91 554.821 -37.69L476.561 98.05C475.486 99.9188 475.013 102.073 475.206 104.221C475.4 106.368 476.25 108.403 477.641 110.05L521.121 161.44C522.404 162.957 524.091 164.079 525.986 164.675C527.882 165.272 529.907 165.318 531.828 164.809C533.748 164.3 535.485 163.257 536.836 161.8C538.187 160.343 539.098 158.533 539.461 156.58L543.191 136.5C543.641 134.089 544.92 131.912 546.807 130.345C548.693 128.778 551.069 127.92 553.521 127.92L606.141 127.97C607.681 127.97 609.202 128.31 610.596 128.964C611.99 129.619 613.223 130.572 614.207 131.757C615.191 132.941 615.902 134.328 616.29 135.818C616.678 137.309 616.733 138.866 616.451 140.38L600.031 228.74C597.871 240.34 613.551 246.13 619.441 235.9L697.701 100.15C698.784 98.2789 699.262 96.119 699.071 93.9656C698.879 91.8122 698.027 89.7705 696.631 88.12Z" fill="#2574F5"/>
<path d="M221.471 287.77L178.001 236.39C176.716 234.885 175.032 233.774 173.143 233.184C171.255 232.595 169.238 232.551 167.325 233.058C165.412 233.565 163.682 234.602 162.333 236.049C160.984 237.497 160.072 239.296 159.701 241.24L154.921 266.96C154.472 269.373 153.192 271.553 151.303 273.12C149.414 274.688 147.035 275.544 144.581 275.54H91.9708C90.4295 275.54 88.9072 275.2 87.512 274.545C86.1168 273.89 84.8829 272.936 83.8978 271.75C82.9128 270.565 82.2009 269.177 81.8125 267.686C81.4242 266.194 81.3689 264.635 81.6508 263.12L99.1308 169.12C101.291 157.51 85.6108 151.73 79.7108 161.95L1.40079 297.7C0.3259 299.569 -0.147103 301.723 0.0461429 303.871C0.239388 306.018 1.0895 308.053 2.48079 309.7L45.9508 361.09C47.2332 362.607 48.9195 363.729 50.814 364.326C52.7086 364.923 54.7336 364.97 56.6539 364.462C58.5742 363.955 60.3111 362.912 61.6629 361.457C63.0147 360.002 63.9259 358.193 64.2908 356.24L68.0208 336.17C68.4711 333.759 69.7503 331.582 71.6368 330.015C73.5233 328.448 75.8984 327.59 78.3508 327.59H130.971C132.512 327.589 134.034 327.927 135.429 328.581C136.824 329.235 138.058 330.188 139.044 331.373C140.029 332.558 140.741 333.945 141.129 335.436C141.518 336.927 141.573 338.485 141.291 340L124.861 428.34C122.701 439.94 138.381 445.73 144.281 435.5L222.551 299.75C223.618 297.883 224.087 295.733 223.894 293.59C223.701 291.448 222.855 289.416 221.471 287.77Z" fill="#2574F5"/>
<path d="M459.051 287.77L415.581 236.39C414.299 234.873 412.612 233.751 410.718 233.154C408.823 232.557 406.798 232.51 404.878 233.018C402.957 233.526 401.221 234.568 399.869 236.023C398.517 237.478 397.606 239.287 397.241 241.24L392.461 266.96C392.014 269.372 390.736 271.552 388.849 273.12C386.961 274.687 384.584 275.544 382.131 275.54H329.511C327.97 275.54 326.447 275.2 325.052 274.545C323.657 273.89 322.423 272.936 321.438 271.75C320.453 270.565 319.741 269.177 319.353 267.686C318.964 266.194 318.909 264.635 319.191 263.12L336.671 169.12C338.831 157.51 323.151 151.73 317.251 161.95L238.981 297.7C237.906 299.569 237.433 301.723 237.626 303.871C237.819 306.018 238.67 308.053 240.061 309.7L283.541 361.09C284.824 362.604 286.51 363.723 288.403 364.318C290.296 364.913 292.319 364.96 294.237 364.452C296.156 363.945 297.891 362.904 299.242 361.45C300.593 359.997 301.505 358.19 301.871 356.24L305.611 336.17C306.059 333.758 307.338 331.58 309.225 330.013C311.112 328.446 313.488 327.588 315.941 327.59H368.551C370.092 327.589 371.614 327.927 373.009 328.581C374.404 329.235 375.638 330.188 376.624 331.373C377.609 332.558 378.321 333.945 378.709 335.436C379.098 336.927 379.153 338.485 378.871 340L362.441 428.34C360.291 439.94 375.971 445.73 381.861 435.5L460.131 299.75C461.198 297.883 461.667 295.733 461.474 293.59C461.281 291.448 460.435 289.416 459.051 287.77Z" fill="#2574F5"/>
<path d="M696.631 287.77L653.161 236.39C651.879 234.873 650.192 233.751 648.298 233.154C646.403 232.557 644.378 232.51 642.458 233.018C640.537 233.526 638.801 234.568 637.449 236.023C636.097 237.478 635.186 239.287 634.821 241.24L630.041 266.96C629.596 269.376 628.317 271.559 626.428 273.129C624.538 274.699 622.158 275.556 619.701 275.55H567.081C565.54 275.548 564.019 275.207 562.625 274.552C561.231 273.896 559.999 272.942 559.015 271.757C558.031 270.571 557.32 269.184 556.932 267.693C556.544 266.202 556.489 264.644 556.771 263.13L574.241 169.13C576.401 157.52 560.721 151.74 554.821 161.96L476.561 297.7C475.486 299.569 475.013 301.723 475.206 303.871C475.4 306.018 476.25 308.053 477.641 309.7L521.121 361.09C522.403 362.607 524.09 363.729 525.984 364.326C527.879 364.923 529.904 364.97 531.824 364.462C533.744 363.955 535.481 362.912 536.833 361.457C538.185 360.002 539.096 358.193 539.461 356.24L543.191 336.17C543.641 333.759 544.92 331.582 546.807 330.015C548.693 328.448 551.069 327.59 553.521 327.59H606.141C607.681 327.59 609.202 327.93 610.596 328.584C611.99 329.239 613.223 330.192 614.207 331.377C615.191 332.561 615.902 333.948 616.29 335.438C616.678 336.929 616.733 338.486 616.451 340L600.031 428.34C597.871 439.94 613.551 445.73 619.441 435.5L697.701 299.8C698.784 297.929 699.262 295.769 699.071 293.616C698.879 291.462 698.027 289.421 696.631 287.77Z" fill="#2574F5"/>
<path d="M459.05 487.42L415.58 436.04C414.297 434.523 412.61 433.401 410.715 432.805C408.82 432.208 406.794 432.162 404.874 432.671C402.953 433.18 401.216 434.223 399.865 435.68C398.514 437.137 397.604 438.947 397.24 440.9L392.46 466.62C392.02 469.039 390.745 471.227 388.857 472.802C386.97 474.377 384.589 475.24 382.13 475.24H329.51C327.97 475.238 326.448 474.897 325.054 474.241C323.66 473.586 322.427 472.632 321.442 471.447C320.457 470.262 319.745 468.875 319.356 467.384C318.967 465.893 318.91 464.335 319.19 462.82L336.67 368.82C338.83 357.21 323.15 351.42 317.25 361.65L238.98 497.34C237.908 499.21 237.437 501.364 237.63 503.51C237.823 505.657 238.672 507.692 240.06 509.34L283.54 560.72C284.822 562.238 286.508 563.361 288.403 563.958C290.298 564.555 292.324 564.601 294.244 564.092C296.164 563.583 297.9 562.539 299.25 561.082C300.601 559.624 301.509 557.813 301.87 555.86L305.61 535.79C306.065 533.384 307.347 531.213 309.233 529.651C311.119 528.09 313.492 527.237 315.94 527.24H368.55C370.091 527.242 371.613 527.583 373.007 528.239C374.401 528.894 375.634 529.848 376.619 531.033C377.604 532.218 378.316 533.605 378.705 535.096C379.094 536.587 379.15 538.145 378.87 539.66L362.44 627.99C360.29 639.6 375.97 645.39 381.86 635.16L460.13 499.41C461.2 497.541 461.67 495.389 461.477 493.245C461.284 491.101 460.437 489.067 459.05 487.42Z" fill="#2574F5"/>
<path d="M696.631 487.42L653.161 436.04C651.878 434.523 650.19 433.401 648.295 432.805C646.4 432.208 644.374 432.162 642.454 432.671C640.533 433.18 638.796 434.223 637.445 435.68C636.094 437.137 635.184 438.947 634.821 440.9L630.041 466.62C629.6 469.041 628.323 471.23 626.434 472.805C624.544 474.38 622.161 475.242 619.701 475.24H567.081C565.54 475.238 564.019 474.897 562.625 474.242C561.231 473.586 559.998 472.632 559.014 471.447C558.03 470.261 557.319 468.874 556.932 467.383C556.544 465.892 556.489 464.334 556.771 462.82L574.241 368.82C576.401 357.21 560.721 351.42 554.821 361.65L476.561 497.34C475.488 499.21 475.017 501.364 475.21 503.51C475.403 505.657 476.252 507.692 477.641 509.34L521.121 560.72C522.404 562.237 524.091 563.359 525.986 563.955C527.881 564.552 529.907 564.598 531.827 564.089C533.748 563.58 535.485 562.537 536.836 561.08C538.187 559.623 539.097 557.813 539.461 555.86L543.191 535.79C543.647 533.385 544.929 531.215 546.815 529.654C548.701 528.093 551.072 527.239 553.521 527.24H606.141C607.681 527.242 609.202 527.583 610.596 528.238C611.99 528.894 613.223 529.848 614.207 531.033C615.191 532.219 615.902 533.606 616.289 535.097C616.677 536.588 616.732 538.146 616.451 539.66L600.031 627.99C597.871 639.6 613.551 645.39 619.441 635.16L697.701 499.45C698.784 497.579 699.262 495.419 699.071 493.266C698.879 491.112 698.027 489.071 696.631 487.42Z" fill="#2574F5"/>
</g>
<defs>
<clipPath id="clip0_56_4159">
<rect width="936.7" height="683.5" fill="white" transform="translate(0 -43)"/>
</clipPath>
</defs>
</svg>
