<svg width="90" height="55" viewBox="0 0 90 55" fill="none" xmlns="http://www.w3.org/2000/svg">
<path d="M61.9315 3.56727C62.1713 2.91243 62.6039 2.34558 63.1722 1.94133C63.7404 1.53708 64.4178 1.31439 65.1151 1.30258H86.8785C87.2545 1.28852 87.6291 1.35715 87.9757 1.50365C88.3224 1.65014 88.6327 1.87092 88.8847 2.15041C89.1367 2.4299 89.3243 2.76129 89.4342 3.12119C89.5442 3.4811 89.5738 3.86075 89.5211 4.23336L83.8987 51.4059C83.7794 52.209 83.3783 52.9434 82.7672 53.4778C82.156 54.0123 81.3747 54.3119 80.5629 54.3231H11.5074C11.1326 54.3374 10.7592 54.2693 10.4135 54.1238C10.0679 53.9782 9.75831 53.7586 9.50665 53.4805C9.25499 53.2024 9.06734 52.8726 8.95691 52.5141C8.84647 52.1557 8.81595 51.7774 8.86747 51.4059L13.5817 11.7724C13.7011 10.9693 14.1022 10.2349 14.7133 9.70043C15.3245 9.16598 16.1058 8.86638 16.9176 8.85518H54.4958C56.1241 8.82742 57.7059 8.30742 59.0331 7.36358C60.3603 6.41974 61.3707 5.09628 61.9315 3.56727Z" fill="#707070"/>
<path d="M10.11 52.1505H82.2675L86.3782 3.59961H14.2234L10.11 52.1505Z" fill="#F0F0F0"/>
<path d="M10.11 52.1505H82.2675L85.2418 3.59961H14.2234L10.11 52.1505Z" fill="#E0E0E0"/>
<path d="M10.11 52.151H82.2675L84.747 2.05859H12.5921L10.11 52.151Z" fill="#F0F0F0"/>
<path d="M10.11 52.151H82.2675L83.249 2.05859H12.5921L10.11 52.151Z" fill="#E0E0E0"/>
<path d="M10.11 52.151H82.2675L82.6971 0.699219H10.5422L10.11 52.151Z" fill="#F0F0F0"/>
<path d="M10.1099 52.1504H82.2675L80.7858 1.67188H9.09586L10.1099 52.1504Z" fill="#E0E0E0"/>
<path d="M10.11 52.151H82.2675L80.1252 2.05859H7.97034L10.11 52.151Z" fill="#F0F0F0"/>
<path d="M10.11 52.1511H82.2675L78.8555 2.81445H6.70068L10.11 52.1511Z" fill="#E0E0E0"/>
<path d="M10.11 52.1516H82.2675L78.3118 3.23633H6.15695L10.11 52.1516Z" fill="#F0F0F0"/>
<path d="M46.2444 6.63214C46.2485 6.3167 46.3159 6.00529 46.4428 5.71646C46.5697 5.42763 46.7534 5.16728 46.9829 4.95091C47.2125 4.73453 47.4832 4.56655 47.7791 4.45698C48.0749 4.3474 48.3897 4.29846 48.7049 4.31307H70.4682C71.3108 4.34542 72.1189 4.65666 72.7654 5.19794C73.412 5.73921 73.8605 6.47988 74.0406 7.30366L82.6399 51.3469C82.9607 52.9972 81.8841 54.3375 80.2339 54.3375H11.1784C9.52538 54.3375 7.9159 52.9972 7.60325 51.3469L0.510103 15.0384C0.189294 13.3882 1.26591 12.0478 2.91617 12.0478H40.497C43.7595 12.0478 46.133 9.80217 46.2444 6.63214Z" fill="#707070"/>
<path opacity="0.2" d="M46.2444 6.63214C46.2485 6.3167 46.3159 6.00529 46.4428 5.71646C46.5697 5.42763 46.7534 5.16728 46.9829 4.95091C47.2125 4.73453 47.4832 4.56655 47.7791 4.45698C48.0749 4.3474 48.3897 4.29846 48.7049 4.31307H70.4682C71.3108 4.34542 72.1189 4.65666 72.7654 5.19794C73.412 5.73921 73.8605 6.47988 74.0406 7.30366L82.6399 51.3469C82.9607 52.9972 81.8841 54.3375 80.2339 54.3375H11.1784C9.52538 54.3375 7.9159 52.9972 7.60325 51.3469L0.510103 15.0384C0.189294 13.3882 1.26591 12.0478 2.91617 12.0478H40.497C43.7595 12.0478 46.133 9.80217 46.2444 6.63214Z" fill="black"/>
</svg>
