<svg width="32" height="32" viewBox="0 0 32 32" fill="none" xmlns="http://www.w3.org/2000/svg">
<path d="M9.33333 14.666H12V17.3327H9.33333V14.666ZM28 7.99935V26.666C28 28.1327 26.8 29.3327 25.3333 29.3327H6.66667C5.18667 29.3327 4 28.1327 4 26.666L4.01333 7.99935C4.01333 6.53268 5.18667 5.33268 6.66667 5.33268H8V2.66602H10.6667V5.33268H21.3333V2.66602H24V5.33268H25.3333C26.8 5.33268 28 6.53268 28 7.99935ZM6.66667 10.666H25.3333V7.99935H6.66667V10.666ZM25.3333 26.666V13.3327H6.66667V26.666H25.3333ZM20 17.3327H22.6667V14.666H20V17.3327ZM14.6667 17.3327H17.3333V14.666H14.6667V17.3327Z" fill="#101628"/>
</svg>
