<svg width="25" height="25" viewBox="0 0 25 25" fill="none" xmlns="http://www.w3.org/2000/svg">
<path d="M1.03223 12.6052C1.03223 17.5177 4.18223 21.6802 8.53223 23.2177V1.99268C4.18223 3.53018 1.03223 7.69268 1.03223 12.6052ZM23.5322 12.6052C23.5322 7.69268 20.4197 3.53018 16.0322 1.99268V23.2177C20.4197 21.6802 23.5322 17.5177 23.5322 12.6052Z" fill="#83BF4F"/>
<path d="M8.53223 23.2177C9.69473 23.6302 10.9697 23.8552 12.2822 23.8552C13.5947 23.8552 14.8697 23.6302 16.0322 23.2177V1.99272C14.8697 1.58022 13.5947 1.35522 12.2822 1.35522C10.9697 1.35522 9.69473 1.58022 8.53223 1.99272V23.2177Z" fill="#F9F9F9"/>
</svg>
