<svg width="65" height="65" viewBox="0 0 65 65" fill="none" xmlns="http://www.w3.org/2000/svg">
<rect x="0.902344" y="0.582031" width="64" height="64" rx="32" fill="#EFF3FF"/>
<path d="M45.2763 41.5633C44.6026 39.9675 43.625 38.5179 42.3978 37.2954C41.1743 36.0694 39.725 35.0919 38.1299 34.4169C38.1156 34.4097 38.1013 34.4061 38.0871 34.399C40.3121 32.7919 41.7585 30.174 41.7585 27.2204C41.7585 22.3276 37.7942 18.3633 32.9013 18.3633C28.0085 18.3633 24.0442 22.3276 24.0442 27.2204C24.0442 30.174 25.4906 32.7919 27.7156 34.4026C27.7013 34.4097 27.6871 34.4133 27.6728 34.4204C26.0728 35.0954 24.6371 36.0633 23.4049 37.299C22.1789 38.5225 21.2014 39.9718 20.5263 41.5669C19.8632 43.1285 19.5056 44.8027 19.4728 46.499C19.4718 46.5371 19.4785 46.575 19.4924 46.6105C19.5064 46.646 19.5273 46.6784 19.5539 46.7057C19.5805 46.733 19.6123 46.7546 19.6475 46.7694C19.6826 46.7843 19.7204 46.7919 19.7585 46.7919H21.9013C22.0585 46.7919 22.1835 46.6669 22.1871 46.5133C22.2585 43.7561 23.3656 41.174 25.3228 39.2169C27.3478 37.1919 30.0371 36.0776 32.9013 36.0776C35.7656 36.0776 38.4549 37.1919 40.4799 39.2169C42.4371 41.174 43.5442 43.7561 43.6156 46.5133C43.6192 46.6704 43.7442 46.7919 43.9013 46.7919H46.0442C46.0823 46.7919 46.1201 46.7843 46.1552 46.7694C46.1904 46.7546 46.2222 46.733 46.2488 46.7057C46.2754 46.6784 46.2963 46.646 46.3103 46.6105C46.3242 46.575 46.3309 46.5371 46.3299 46.499C46.2942 44.7919 45.9406 43.1311 45.2763 41.5633ZM32.9013 33.3633C31.2621 33.3633 29.7192 32.724 28.5585 31.5633C27.3978 30.4026 26.7585 28.8597 26.7585 27.2204C26.7585 25.5811 27.3978 24.0383 28.5585 22.8776C29.7192 21.7169 31.2621 21.0776 32.9013 21.0776C34.5406 21.0776 36.0835 21.7169 37.2442 22.8776C38.4049 24.0383 39.0442 25.5811 39.0442 27.2204C39.0442 28.8597 38.4049 30.4026 37.2442 31.5633C36.0835 32.724 34.5406 33.3633 32.9013 33.3633Z" fill="#47454C"/>
</svg>
