<svg width="25" height="26" viewBox="0 0 25 26" fill="none" xmlns="http://www.w3.org/2000/svg">
<g clip-path="url(#clip0_75_5258)">
<path d="M12.2373 23.6648C18.6438 23.6648 23.8373 18.4713 23.8373 12.0648C23.8373 5.65834 18.6438 0.464844 12.2373 0.464844C5.83083 0.464844 0.637329 5.65834 0.637329 12.0648C0.637329 18.4713 5.83083 23.6648 12.2373 23.6648Z" fill="#068D40"/>
<path d="M17.945 8.18251L16.8183 7.88062L14.3808 16.9773L10.3922 6.15876L9.07084 5.80469L6.15259 16.6957L7.27924 16.9976L9.76516 7.72006L13.8027 18.7455L15.0268 19.0735L17.945 8.18251Z" fill="white"/>
<path d="M6.64209 8.84961L18.5421 12.5496" stroke="white" stroke-width="1.5"/>
<path d="M6.08179 11.6602L17.9818 15.3602" stroke="white" stroke-width="1.5"/>
</g>
<defs>
<clipPath id="clip0_75_5258">
<rect width="24" height="25.6" fill="white" transform="translate(0.333313 0.199219)"/>
</clipPath>
</defs>
</svg>
