<svg width="166" height="166" viewBox="0 0 166 166" fill="none" xmlns="http://www.w3.org/2000/svg">
<rect width="166" height="166" rx="83" fill="#D9D9D9"/>
<path d="M95.374 91.9813C94.7003 90.3854 93.7226 88.9359 92.4954 87.7134C91.2719 86.4874 89.8227 85.5098 88.2275 84.8348C88.2133 84.8277 88.199 84.8241 88.1847 84.817C90.4097 83.2098 91.8561 80.592 91.8561 77.6384C91.8561 72.7455 87.8918 68.7812 82.999 68.7812C78.1061 68.7812 74.1418 72.7455 74.1418 77.6384C74.1418 80.592 75.5883 83.2098 77.8133 84.8205C77.799 84.8277 77.7847 84.8313 77.7704 84.8384C76.1704 85.5134 74.7347 86.4813 73.5025 87.717C72.2765 88.9404 71.299 90.3897 70.624 91.9848C69.9608 93.5464 69.6032 95.2207 69.5704 96.917C69.5694 96.9551 69.5761 96.993 69.5901 97.0285C69.604 97.064 69.6249 97.0963 69.6515 97.1236C69.6781 97.1509 69.71 97.1726 69.7451 97.1874C69.7802 97.2022 69.818 97.2098 69.8561 97.2098H71.999C72.1561 97.2098 72.2811 97.0848 72.2847 96.9313C72.3561 94.1741 73.4633 91.592 75.4204 89.6348C77.4454 87.6098 80.1347 86.4955 82.999 86.4955C85.8633 86.4955 88.5525 87.6098 90.5775 89.6348C92.5347 91.592 93.6418 94.1741 93.7133 96.9313C93.7168 97.0884 93.8418 97.2098 93.999 97.2098H96.1418C96.18 97.2098 96.2177 97.2022 96.2528 97.1874C96.288 97.1726 96.3198 97.1509 96.3464 97.1236C96.3731 97.0963 96.3939 97.064 96.4079 97.0285C96.4218 96.993 96.4285 96.9551 96.4275 96.917C96.3918 95.2098 96.0383 93.5491 95.374 91.9813ZM82.999 83.7813C81.3597 83.7813 79.8168 83.142 78.6561 81.9813C77.4954 80.8205 76.8561 79.2777 76.8561 77.6384C76.8561 75.9991 77.4954 74.4563 78.6561 73.2955C79.8168 72.1348 81.3597 71.4955 82.999 71.4955C84.6383 71.4955 86.1811 72.1348 87.3418 73.2955C88.5025 74.4563 89.1418 75.9991 89.1418 77.6384C89.1418 79.2777 88.5025 80.8205 87.3418 81.9813C86.1811 83.142 84.6383 83.7813 82.999 83.7813Z" fill="white"/>
</svg>
