<svg width="165" height="55" viewBox="0 0 165 55" fill="none" xmlns="http://www.w3.org/2000/svg">
<g clip-path="url(#clip0_457_4268)">
<path d="M41.8269 25.5126L33.6356 15.832C33.3936 15.5465 33.0755 15.3354 32.7184 15.2233C32.3613 15.1112 31.9797 15.1026 31.6179 15.1986C31.2561 15.2945 30.9289 15.4911 30.6743 15.7655C30.4197 16.0398 30.2481 16.3807 30.1793 16.7487L29.278 21.607C29.1935 22.0615 28.9526 22.472 28.5971 22.7675C28.2416 23.063 27.7939 23.2247 27.3316 23.2247H17.4173C17.1271 23.224 16.8406 23.1594 16.5781 23.0356C16.3156 22.9118 16.0835 22.7318 15.8983 22.5084C15.713 22.285 15.5792 22.0235 15.5062 21.7426C15.4333 21.4617 15.423 21.1682 15.4761 20.8829L18.768 3.16496C19.1737 0.969486 16.2207 -0.121834 15.1089 1.80659L0.354218 27.382C0.150632 27.7349 0.0608683 28.142 0.0971723 28.5478C0.133476 28.9535 0.29408 29.3382 0.557075 29.6494L8.7561 39.3249C8.99814 39.6104 9.31617 39.8214 9.67329 39.9336C10.0304 40.0457 10.412 40.0542 10.7738 39.9583C11.1356 39.8623 11.4628 39.6658 11.7174 39.3914C11.972 39.117 12.1436 38.7761 12.2124 38.4082L12.9159 34.6284C13 34.1737 13.2408 33.7628 13.5964 33.4673C13.952 33.1717 14.4 33.0101 14.8623 33.0106H24.7741C25.0643 33.0111 25.3508 33.0753 25.6134 33.1988C25.876 33.3223 26.1083 33.5019 26.2938 33.7251C26.4792 33.9483 26.6133 34.2095 26.6866 34.4903C26.7599 34.7711 26.7706 35.0645 26.7179 35.3499L23.6366 51.9945C23.2308 54.1797 26.1838 55.271 27.2957 53.3426L42.0298 27.7697C42.2311 27.418 42.3195 27.0129 42.2833 26.6093C42.247 26.2056 42.0877 25.8229 41.8269 25.5126Z" fill="white"/>
<path d="M49.7693 37.5453V15.4082H53.811V25.0657H63.2298V15.4082H67.2997V37.5453H63.2298V28.6299H53.811V37.5453H49.7693Z" fill="white"/>
<path d="M74.6386 37.8995C73.6289 37.9231 72.6258 37.7314 71.6959 37.3372C70.9 37.0016 70.2243 36.433 69.7577 35.706C69.2911 34.9791 69.0555 34.128 69.0819 33.2646C69.0548 32.4124 69.2692 31.5699 69.7004 30.8343C70.1316 30.0988 70.7619 29.5001 71.5187 29.1073C72.4988 28.5814 73.5664 28.2386 74.6694 28.0956L79.9566 27.2354V30.2064L75.4115 30.9767C74.7778 31.055 74.1798 31.3135 73.6885 31.7214C73.5008 31.9009 73.3533 32.1183 73.2559 32.3591C73.1585 32.5999 73.1134 32.8587 73.1236 33.1183C73.1152 33.3733 73.1687 33.6267 73.2796 33.8565C73.3906 34.0864 73.5555 34.2859 73.7604 34.4381C74.2205 34.7767 74.7816 34.9495 75.3525 34.9286C76.102 34.9458 76.8433 34.7689 77.5043 34.415C78.1161 34.0813 78.6216 33.5821 78.9628 32.9745C79.3067 32.3569 79.4837 31.6604 79.4764 30.9536V26.7937C79.4832 26.4612 79.4144 26.1315 79.2752 25.8295C79.136 25.5274 78.9299 25.261 78.6726 25.0502C78.0632 24.5633 77.2974 24.3151 76.5182 24.3517C75.729 24.339 74.9554 24.5724 74.3048 25.0194C73.6691 25.4561 73.1775 26.0719 72.8925 26.7886L69.7136 25.2479C70.0278 24.4001 70.5423 23.6407 71.2132 23.0345C71.9205 22.3965 72.7421 21.8982 73.6346 21.5657C74.6038 21.2015 75.6319 21.0196 76.6672 21.029C77.8756 21.0044 79.0739 21.2537 80.1722 21.7583C81.131 22.2 81.9486 22.8986 82.5346 23.7766C83.1096 24.6762 83.4045 25.7263 83.382 26.7937V37.5503H79.6998V34.7822L80.5317 34.7206C80.1432 35.3836 79.6398 35.9723 79.045 36.459C78.4611 36.9301 77.7975 37.2927 77.0857 37.5298C76.2956 37.7856 75.469 37.9105 74.6386 37.8995Z" fill="white"/>
<path d="M91.6324 37.8988C90.0438 37.9359 88.4791 37.5075 87.131 36.6662C85.8927 35.8934 84.9628 34.7129 84.5016 33.3281L87.4032 31.9286C87.7769 32.7867 88.3781 33.5263 89.1416 34.0676C89.8676 34.5773 90.7351 34.8467 91.6221 34.8379C92.2239 34.8703 92.8196 34.7033 93.3169 34.3629C93.5142 34.221 93.6741 34.0333 93.7828 33.8159C93.8915 33.5985 93.9458 33.3579 93.9409 33.1149C93.951 32.8301 93.8601 32.5508 93.6841 32.3266C93.497 32.102 93.2641 31.9199 93.001 31.7925C92.7019 31.6392 92.389 31.5146 92.0664 31.4202L89.4215 30.6781C88.052 30.2826 87.0172 29.6783 86.317 28.8652C85.6192 28.0695 85.2429 27.0423 85.2617 25.9841C85.2465 25.0587 85.5154 24.1509 86.032 23.3829C86.5622 22.6202 87.2926 22.0187 88.1427 21.6445C89.1223 21.2127 90.1846 21.0006 91.2549 21.0231C92.6766 20.9968 94.0762 21.3772 95.289 22.1196C96.4439 22.836 97.3226 23.922 97.7823 25.2009L94.8113 26.5978C94.5459 25.8785 94.0561 25.2637 93.4145 24.844C92.7648 24.4085 91.9985 24.1802 91.2164 24.1892C90.6671 24.1598 90.1241 24.3173 89.6757 24.636C89.4968 24.7705 89.3524 24.9457 89.2546 25.1471C89.1568 25.3485 89.1084 25.5703 89.1134 25.7941C89.1074 26.0696 89.1902 26.3397 89.3496 26.5644C89.5251 26.7955 89.7555 26.979 90.0198 27.0985C90.3362 27.2584 90.663 27.3965 90.9981 27.512L93.5839 28.2823C94.9106 28.6777 95.9378 29.2718 96.6653 30.0644C97.3907 30.8578 97.78 31.9016 97.7515 32.9763C97.7683 33.8915 97.499 34.7892 96.9811 35.5441C96.4403 36.3018 95.7036 36.8983 94.8499 37.2696C93.8352 37.7087 92.7377 37.9233 91.6324 37.8988Z" fill="white"/>
<path d="M99.269 37.5448V15.0508H103.162V24.5517L102.628 23.9868C102.97 23.0553 103.627 22.2725 104.484 21.7733C105.402 21.2499 106.443 20.9838 107.499 21.003C108.602 20.9817 109.692 21.2472 110.662 21.7733C111.575 22.2793 112.325 23.0346 112.825 23.9508C113.354 24.9307 113.62 26.0316 113.595 27.1452V37.5448H109.699V28.067C109.714 27.4292 109.572 26.7977 109.284 26.2285C109.019 25.7297 108.623 25.3131 108.138 25.0242C107.615 24.7432 107.031 24.5962 106.437 24.5962C105.843 24.5962 105.259 24.7432 104.736 25.0242C104.245 25.3092 103.845 25.7265 103.58 26.2285C103.291 26.7989 103.148 27.4326 103.164 28.0722V37.5499L99.269 37.5448Z" fill="white"/>
<path d="M115.392 43.4881V21.3819H119.046V24.5916L118.689 23.7879C119.243 22.9179 120.024 22.2149 120.946 21.7542C121.973 21.2517 123.104 21.0016 124.246 21.0249C125.701 21.0061 127.132 21.3977 128.375 22.1548C129.598 22.8964 130.609 23.9398 131.313 25.1848C132.044 26.4904 132.418 27.9662 132.396 29.4628C132.415 30.9578 132.047 32.4323 131.328 33.7433C130.644 34.9982 129.639 36.0491 128.416 36.7887C127.149 37.5407 125.698 37.9257 124.226 37.9006C123.113 37.913 122.011 37.6752 121.003 37.2047C120.054 36.7661 119.247 36.0716 118.671 35.1992L119.293 34.4289V43.4907L115.392 43.4881ZM123.771 34.3365C124.606 34.3511 125.429 34.1352 126.149 33.7125C126.838 33.2995 127.398 32.7029 127.767 31.9895C128.166 31.208 128.365 30.34 128.347 29.4628C128.366 28.5912 128.166 27.7287 127.767 26.954C127.387 26.2269 126.812 25.6203 126.106 25.2029C125.4 24.7854 124.591 24.5737 123.771 24.5916C122.963 24.5778 122.168 24.7922 121.477 25.2101C120.785 25.628 120.226 26.2324 119.863 26.954C119.481 27.7384 119.283 28.5993 119.283 29.4717C119.283 30.3441 119.481 31.2051 119.863 31.9895C120.23 32.7064 120.791 33.3062 121.482 33.721C122.173 34.1358 122.965 34.349 123.771 34.3365Z" fill="white"/>
<path d="M138.785 37.8988C137.776 37.9222 136.774 37.7305 135.845 37.3365C135.049 37.0004 134.373 36.4317 133.907 35.705C133.44 34.9782 133.203 34.1274 133.228 33.2639C133.202 32.4103 133.419 31.5669 133.852 30.8312C134.286 30.0955 134.919 29.4976 135.678 29.1066C136.658 28.5807 137.726 28.2379 138.829 28.0949L144.116 27.2347V30.2056L139.571 30.976C138.937 31.0543 138.339 31.3127 137.848 31.7206C137.66 31.9002 137.513 32.1176 137.415 32.3584C137.318 32.5992 137.273 32.858 137.283 33.1175C137.274 33.3729 137.328 33.6265 137.439 33.8565C137.551 34.0864 137.717 34.2858 137.922 34.4374C138.381 34.7763 138.942 34.9493 139.512 34.9278C140.262 34.9447 141.004 34.7678 141.666 34.4143C142.277 34.0804 142.782 33.5812 143.122 32.9737C143.467 32.3566 143.644 31.6598 143.636 30.9529V26.793C143.64 26.4603 143.569 26.1309 143.428 25.8298C143.286 25.5286 143.078 25.2636 142.819 25.0546C142.21 24.5675 141.444 24.3192 140.665 24.3562C139.875 24.3438 139.102 24.5771 138.451 25.0238C137.815 25.4605 137.324 26.0763 137.039 26.793L133.86 25.2523C134.175 24.4043 134.69 23.645 135.362 23.0389C136.069 22.3999 136.89 21.9014 137.784 21.5701C138.751 21.2024 139.778 21.017 140.814 21.0231C142.023 20.9985 143.222 21.2478 144.321 21.7524C145.279 22.1942 146.096 22.8928 146.681 23.7707C147.256 24.6704 147.551 25.7204 147.528 26.7879V37.5444H143.836V34.7815L144.668 34.7199C144.279 35.3822 143.777 35.9708 143.184 36.4583C142.599 36.9294 141.934 37.292 141.222 37.529C140.435 37.7839 139.612 37.9088 138.785 37.8988Z" fill="white"/>
<path d="M151.598 44.1111C151.168 44.1118 150.739 44.0766 150.315 44.0058C149.924 43.9448 149.544 43.8299 149.185 43.6643V40.3955C149.441 40.4571 149.752 40.5162 150.119 40.5752C150.459 40.6324 150.802 40.6624 151.146 40.6651C152.038 40.6651 152.687 40.4571 153.093 40.0411C153.541 39.5584 153.907 39.006 154.176 38.4054L155.245 35.9095L155.193 39.1784L148.145 21.3809H152.333L157.266 34.5126H155.781L160.683 21.3809H164.902L157.861 39.1784C157.495 40.1417 156.983 41.0432 156.344 41.8514C155.79 42.5549 155.089 43.1282 154.289 43.5308C153.45 43.9309 152.528 44.1296 151.598 44.1111Z" fill="white"/>
</g>
<defs>
<clipPath id="clip0_457_4268">
<rect width="164.805" height="53.5466" fill="white" transform="translate(0.0976562 0.808594)"/>
</clipPath>
</defs>
</svg>
